<?xml version="1.0" encoding="UTF-8"?>
<svg xmlns="http://www.w3.org/2000/svg" xmlns:xlink="http://www.w3.org/1999/xlink" width="1080" height="1920" viewBox="0 0 1080 1920">
<defs>
<g>
<g id="glyph-0-0">
<path d="M 10.667969 0 L 7.980469 0 L 3.699219 -7.742188 L 3.699219 0 L 1.148438 0 L 1.148438 -11.105469 L 4.574219 -11.105469 L 8.117188 -4.746094 L 8.117188 -11.105469 L 10.667969 -11.105469 Z "/>
</g>
<g id="glyph-0-1">
<path d="M 5.617188 -2.1875 L 5.617188 -3.929688 C 5.175781 -3.886719 4.816406 -3.847656 4.542969 -3.816406 C 4.269531 -3.785156 4 -3.71875 3.738281 -3.625 C 3.507812 -3.546875 3.332031 -3.425781 3.203125 -3.261719 C 3.078125 -3.101562 3.015625 -2.886719 3.015625 -2.617188 C 3.015625 -2.226562 3.121094 -1.957031 3.332031 -1.808594 C 3.542969 -1.664062 3.855469 -1.589844 4.265625 -1.589844 C 4.496094 -1.589844 4.730469 -1.640625 4.96875 -1.746094 C 5.207031 -1.851562 5.421875 -1.996094 5.617188 -2.1875 M 5.617188 -0.886719 C 5.4375 -0.738281 5.277344 -0.605469 5.136719 -0.484375 C 4.996094 -0.367188 4.804688 -0.246094 4.566406 -0.125 C 4.332031 -0.0117188 4.105469 0.0742188 3.882812 0.132812 C 3.660156 0.195312 3.351562 0.222656 2.953125 0.222656 C 2.214844 0.222656 1.597656 -0.0234375 1.109375 -0.523438 C 0.617188 -1.019531 0.371094 -1.644531 0.371094 -2.402344 C 0.371094 -3.023438 0.496094 -3.527344 0.746094 -3.910156 C 0.996094 -4.292969 1.351562 -4.59375 1.820312 -4.820312 C 2.292969 -5.046875 2.855469 -5.207031 3.511719 -5.296875 C 4.171875 -5.386719 4.875 -5.457031 5.632812 -5.503906 L 5.632812 -5.550781 C 5.632812 -6.011719 5.460938 -6.332031 5.121094 -6.507812 C 4.78125 -6.683594 4.269531 -6.773438 3.589844 -6.773438 C 3.28125 -6.773438 2.917969 -6.71875 2.507812 -6.605469 C 2.09375 -6.492188 1.691406 -6.351562 1.296875 -6.175781 L 1.074219 -6.175781 L 1.074219 -8.199219 C 1.332031 -8.273438 1.75 -8.359375 2.328125 -8.464844 C 2.902344 -8.566406 3.484375 -8.617188 4.074219 -8.617188 C 5.515625 -8.617188 6.566406 -8.375 7.226562 -7.894531 C 7.882812 -7.417969 8.214844 -6.683594 8.214844 -5.699219 L 8.214844 0 L 5.617188 0 L 5.617188 -0.886719 M 7.078125 -12.203125 C 7.078125 -11.277344 6.828125 -10.574219 6.320312 -10.089844 C 5.816406 -9.605469 5.152344 -9.363281 4.328125 -9.363281 C 3.429688 -9.363281 2.746094 -9.605469 2.273438 -10.089844 C 1.804688 -10.574219 1.566406 -11.277344 1.566406 -12.203125 L 3.074219 -12.203125 C 3.074219 -11.976562 3.09375 -11.769531 3.136719 -11.59375 C 3.179688 -11.414062 3.25 -11.253906 3.347656 -11.113281 C 3.449219 -10.980469 3.574219 -10.875 3.730469 -10.796875 C 3.882812 -10.722656 4.082031 -10.683594 4.328125 -10.683594 C 4.539062 -10.683594 4.730469 -10.722656 4.894531 -10.800781 C 5.058594 -10.882812 5.1875 -10.984375 5.28125 -11.113281 C 5.390625 -11.269531 5.464844 -11.425781 5.507812 -11.585938 C 5.550781 -11.742188 5.574219 -11.949219 5.574219 -12.203125 L 7.078125 -12.203125 M 6.347656 -14.410156 L 4.796875 -12.429688 L 3.535156 -12.429688 L 4.460938 -14.410156 Z "/>
</g>
<g id="glyph-0-2">
<path d="M 11.011719 0 L 11.011719 -4.183594 C 11.011719 -4.597656 11.003906 -4.945312 10.988281 -5.230469 C 10.972656 -5.511719 10.929688 -5.742188 10.855469 -5.921875 C 10.777344 -6.101562 10.664062 -6.234375 10.507812 -6.316406 C 10.351562 -6.398438 10.128906 -6.4375 9.847656 -6.4375 C 9.648438 -6.4375 9.453125 -6.394531 9.257812 -6.308594 C 9.0625 -6.21875 8.851562 -6.097656 8.625 -5.9375 L 8.625 0 L 5.996094 0 L 5.996094 -4.183594 C 5.996094 -4.59375 5.988281 -4.941406 5.972656 -5.226562 C 5.953125 -5.511719 5.90625 -5.742188 5.832031 -5.921875 C 5.757812 -6.101562 5.644531 -6.234375 5.488281 -6.316406 C 5.328125 -6.398438 5.113281 -6.4375 4.832031 -6.4375 C 4.621094 -6.4375 4.410156 -6.386719 4.207031 -6.289062 C 4.003906 -6.1875 3.804688 -6.070312 3.609375 -5.9375 L 3.609375 0 L 1 0 L 1 -8.378906 L 3.609375 -8.378906 L 3.609375 -7.453125 C 4.039062 -7.816406 4.441406 -8.097656 4.820312 -8.300781 C 5.195312 -8.507812 5.621094 -8.609375 6.09375 -8.609375 C 6.605469 -8.609375 7.058594 -8.488281 7.445312 -8.242188 C 7.832031 -8 8.128906 -7.636719 8.332031 -7.152344 C 8.835938 -7.621094 9.308594 -7.980469 9.753906 -8.230469 C 10.199219 -8.484375 10.648438 -8.609375 11.105469 -8.609375 C 11.496094 -8.609375 11.84375 -8.546875 12.152344 -8.421875 C 12.460938 -8.296875 12.722656 -8.109375 12.933594 -7.863281 C 13.167969 -7.59375 13.34375 -7.273438 13.460938 -6.902344 C 13.578125 -6.535156 13.636719 -6.050781 13.636719 -5.453125 L 13.636719 0 Z "/>
</g>
<g id="glyph-0-3">
</g>
<g id="glyph-0-4">
<path d="M 6.542969 -4.253906 C 6.542969 -5.085938 6.414062 -5.683594 6.160156 -6.042969 C 5.90625 -6.398438 5.519531 -6.578125 4.992188 -6.578125 C 4.757812 -6.578125 4.523438 -6.542969 4.292969 -6.46875 C 4.0625 -6.394531 3.835938 -6.28125 3.609375 -6.132812 L 3.609375 -1.925781 C 3.785156 -1.855469 3.960938 -1.808594 4.136719 -1.78125 C 4.3125 -1.757812 4.488281 -1.746094 4.664062 -1.746094 C 5.292969 -1.746094 5.765625 -1.953125 6.074219 -2.371094 C 6.386719 -2.789062 6.542969 -3.417969 6.542969 -4.253906 M 9.210938 -4.304688 C 9.210938 -2.972656 8.875 -1.894531 8.199219 -1.070312 C 7.523438 -0.246094 6.683594 0.164062 5.683594 0.164062 C 5.265625 0.164062 4.902344 0.117188 4.59375 0.0234375 C 4.285156 -0.0703125 3.957031 -0.21875 3.609375 -0.417969 L 3.5 0 L 1 0 L 1 -11.605469 L 3.609375 -11.605469 L 3.609375 -7.503906 C 3.992188 -7.832031 4.382812 -8.097656 4.78125 -8.300781 C 5.179688 -8.507812 5.640625 -8.609375 6.160156 -8.609375 C 7.136719 -8.609375 7.886719 -8.226562 8.417969 -7.46875 C 8.949219 -6.707031 9.210938 -5.652344 9.210938 -4.304688 Z "/>
</g>
<g id="glyph-0-5">
<path d="M 3.609375 0 L 1 0 L 1 -8.378906 L 3.609375 -8.378906 L 3.609375 0 M 4.730469 -12.503906 L 2.492188 -9.570312 L 0.714844 -9.570312 L 2.261719 -12.503906 Z "/>
</g>
<g id="glyph-0-6">
<path d="M 8.617188 3.074219 L 6.003906 3.074219 L 6.003906 -0.820312 C 5.820312 -0.671875 5.628906 -0.527344 5.429688 -0.382812 C 5.230469 -0.242188 5.042969 -0.132812 4.863281 -0.0507812 C 4.640625 0.0507812 4.4375 0.125 4.253906 0.167969 C 4.066406 0.210938 3.820312 0.230469 3.507812 0.230469 C 2.554688 0.230469 1.800781 -0.164062 1.242188 -0.953125 C 0.683594 -1.746094 0.402344 -2.800781 0.402344 -4.125 C 0.402344 -4.855469 0.496094 -5.492188 0.6875 -6.027344 C 0.875 -6.566406 1.136719 -7.03125 1.46875 -7.429688 C 1.773438 -7.792969 2.140625 -8.078125 2.574219 -8.292969 C 3.007812 -8.503906 3.464844 -8.609375 3.945312 -8.609375 C 4.359375 -8.609375 4.71875 -8.554688 5.023438 -8.453125 C 5.328125 -8.347656 5.652344 -8.199219 5.988281 -8.003906 L 6.085938 -8.378906 L 8.617188 -8.378906 L 8.617188 3.074219 M 6.003906 -2.3125 L 6.003906 -6.421875 C 5.875 -6.488281 5.707031 -6.539062 5.496094 -6.582031 C 5.289062 -6.625 5.109375 -6.648438 4.960938 -6.648438 C 4.335938 -6.648438 3.863281 -6.425781 3.546875 -5.988281 C 3.230469 -5.550781 3.074219 -4.941406 3.074219 -4.15625 C 3.074219 -3.328125 3.199219 -2.734375 3.449219 -2.363281 C 3.703125 -1.996094 4.109375 -1.8125 4.667969 -1.8125 C 4.898438 -1.8125 5.128906 -1.859375 5.363281 -1.945312 C 5.597656 -2.035156 5.8125 -2.160156 6.003906 -2.3125 Z "/>
</g>
<g id="glyph-0-7">
<path d="M 8.78125 0 L 6.167969 0 L 6.167969 -0.925781 C 5.714844 -0.546875 5.300781 -0.261719 4.921875 -0.0625 C 4.546875 0.132812 4.09375 0.230469 3.574219 0.230469 C 2.742188 0.230469 2.09375 -0.03125 1.628906 -0.554688 C 1.164062 -1.082031 0.933594 -1.871094 0.933594 -2.925781 L 0.933594 -8.378906 L 3.558594 -8.378906 L 3.558594 -4.222656 C 3.558594 -3.789062 3.570312 -3.4375 3.59375 -3.164062 C 3.613281 -2.890625 3.667969 -2.65625 3.753906 -2.46875 C 3.832031 -2.296875 3.953125 -2.164062 4.121094 -2.074219 C 4.289062 -1.984375 4.519531 -1.941406 4.820312 -1.941406 C 5.003906 -1.941406 5.21875 -1.984375 5.472656 -2.074219 C 5.722656 -2.164062 5.957031 -2.285156 6.167969 -2.4375 L 6.167969 -8.378906 L 8.78125 -8.378906 Z "/>
</g>
<g id="glyph-0-8">
<path d="M 8.816406 -8.378906 L 4.585938 3.074219 L 1.78125 3.074219 L 3.050781 -0.203125 L -0.0234375 -8.378906 L 2.722656 -8.378906 L 4.484375 -3.125 L 6.132812 -8.378906 Z "/>
</g>
<g id="glyph-0-9">
<path d="M 5.289062 0.222656 C 3.707031 0.222656 2.496094 -0.152344 1.652344 -0.910156 C 0.808594 -1.664062 0.386719 -2.742188 0.386719 -4.140625 C 0.386719 -5.507812 0.78125 -6.597656 1.566406 -7.414062 C 2.351562 -8.230469 3.453125 -8.636719 4.863281 -8.636719 C 6.148438 -8.636719 7.113281 -8.292969 7.757812 -7.601562 C 8.40625 -6.910156 8.726562 -5.921875 8.726562 -4.632812 L 8.726562 -3.691406 L 3.007812 -3.691406 C 3.03125 -3.304688 3.113281 -2.980469 3.253906 -2.71875 C 3.390625 -2.457031 3.574219 -2.25 3.804688 -2.097656 C 4.027344 -1.941406 4.289062 -1.832031 4.585938 -1.765625 C 4.886719 -1.695312 5.210938 -1.664062 5.566406 -1.664062 C 5.867188 -1.664062 6.167969 -1.695312 6.460938 -1.765625 C 6.753906 -1.832031 7.023438 -1.917969 7.265625 -2.027344 C 7.480469 -2.125 7.675781 -2.226562 7.859375 -2.335938 C 8.039062 -2.445312 8.1875 -2.542969 8.300781 -2.625 L 8.578125 -2.625 L 8.578125 -0.46875 C 8.363281 -0.386719 8.167969 -0.308594 7.992188 -0.234375 C 7.816406 -0.164062 7.574219 -0.0898438 7.265625 -0.015625 C 6.980469 0.0585938 6.691406 0.117188 6.390625 0.160156 C 6.089844 0.203125 5.722656 0.222656 5.289062 0.222656 M 6.152344 -5.265625 C 6.140625 -5.820312 6.011719 -6.238281 5.769531 -6.527344 C 5.527344 -6.816406 5.160156 -6.960938 4.664062 -6.960938 C 4.15625 -6.960938 3.757812 -6.808594 3.472656 -6.503906 C 3.1875 -6.203125 3.027344 -5.789062 3 -5.265625 L 6.152344 -5.265625 M 7.945312 -9.570312 L 6.011719 -9.570312 L 4.78125 -11.160156 L 3.558594 -9.570312 L 1.65625 -9.570312 L 3.902344 -12.503906 L 5.699219 -12.503906 L 7.945312 -9.570312 M 10.609375 -12.503906 L 9.054688 -10.519531 L 7.796875 -10.519531 L 8.71875 -12.503906 Z "/>
</g>
<g id="glyph-0-10">
<path d="M 4.207031 0.164062 C 3.144531 0.164062 2.367188 -0.0546875 1.882812 -0.492188 C 1.398438 -0.929688 1.15625 -1.644531 1.15625 -2.640625 L 1.15625 -6.558594 L 0.15625 -6.558594 L 0.15625 -8.378906 L 1.15625 -8.378906 L 1.15625 -10.773438 L 3.765625 -10.773438 L 3.765625 -8.378906 L 6.28125 -8.378906 L 6.28125 -6.558594 L 3.765625 -6.558594 L 3.765625 -3.589844 C 3.765625 -3.292969 3.769531 -3.039062 3.773438 -2.820312 C 3.78125 -2.601562 3.820312 -2.40625 3.894531 -2.230469 C 3.964844 -2.054688 4.085938 -1.917969 4.261719 -1.816406 C 4.441406 -1.714844 4.695312 -1.664062 5.035156 -1.664062 C 5.175781 -1.664062 5.355469 -1.691406 5.582031 -1.753906 C 5.808594 -1.8125 5.96875 -1.867188 6.058594 -1.917969 L 6.28125 -1.917969 L 6.28125 -0.0742188 C 5.996094 0 5.695312 0.0585938 5.378906 0.101562 C 5.058594 0.144531 4.667969 0.164062 4.207031 0.164062 Z "/>
</g>
</g>
</defs>
<g fill="rgb(100%, 100%, 100%)" fill-opacity="1">
<use xlink:href="#glyph-0-0" x="30" y="35.285156"/>
<use xlink:href="#glyph-0-1" x="42" y="35.285156"/>
<use xlink:href="#glyph-0-2" x="51" y="35.285156"/>
<use xlink:href="#glyph-0-3" x="66" y="35.285156"/>
<use xlink:href="#glyph-0-4" x="70" y="35.285156"/>
<use xlink:href="#glyph-0-5" x="80" y="35.285156"/>
<use xlink:href="#glyph-0-3" x="85" y="35.285156"/>
<use xlink:href="#glyph-0-6" x="89" y="35.285156"/>
<use xlink:href="#glyph-0-7" x="99" y="35.285156"/>
<use xlink:href="#glyph-0-8" x="109" y="35.285156"/>
<use xlink:href="#glyph-0-9" x="118" y="35.285156"/>
<use xlink:href="#glyph-0-10" x="127" y="35.285156"/>
</g>
</svg>
