<?xml version="1.0" encoding="UTF-8"?>
<svg xmlns="http://www.w3.org/2000/svg" xmlns:xlink="http://www.w3.org/1999/xlink" width="600" height="400" viewBox="0 0 600 400">
<defs>
<g>
<g id="glyph-0-0">
<path d="M 9.308594 0 L 6.964844 0 L 3.230469 -6.757812 L 3.230469 0 L 1.003906 0 L 1.003906 -9.695312 L 3.992188 -9.695312 L 7.082031 -4.140625 L 7.082031 -9.695312 L 9.308594 -9.695312 Z "/>
</g>
<g id="glyph-0-1">
<path d="M 4.902344 -1.90625 L 4.902344 -3.429688 C 4.515625 -3.390625 4.203125 -3.359375 3.964844 -3.328125 C 3.726562 -3.300781 3.492188 -3.246094 3.261719 -3.164062 C 3.0625 -3.09375 2.90625 -2.988281 2.796875 -2.847656 C 2.683594 -2.707031 2.628906 -2.519531 2.628906 -2.285156 C 2.628906 -1.941406 2.722656 -1.707031 2.90625 -1.578125 C 3.089844 -1.449219 3.363281 -1.386719 3.722656 -1.386719 C 3.921875 -1.386719 4.128906 -1.433594 4.335938 -1.523438 C 4.542969 -1.613281 4.734375 -1.742188 4.902344 -1.90625 M 4.902344 -0.773438 C 4.746094 -0.644531 4.605469 -0.527344 4.484375 -0.421875 C 4.359375 -0.320312 4.191406 -0.214844 3.984375 -0.109375 C 3.78125 -0.0117188 3.582031 0.0664062 3.386719 0.117188 C 3.195312 0.167969 2.925781 0.195312 2.578125 0.195312 C 1.929688 0.195312 1.394531 -0.0234375 0.964844 -0.457031 C 0.539062 -0.890625 0.324219 -1.4375 0.324219 -2.097656 C 0.324219 -2.640625 0.433594 -3.078125 0.652344 -3.410156 C 0.867188 -3.746094 1.179688 -4.011719 1.589844 -4.207031 C 2 -4.40625 2.492188 -4.542969 3.066406 -4.621094 C 3.640625 -4.699219 4.253906 -4.761719 4.914062 -4.804688 L 4.914062 -4.84375 C 4.914062 -5.246094 4.765625 -5.527344 4.46875 -5.679688 C 4.171875 -5.835938 3.726562 -5.910156 3.132812 -5.910156 C 2.863281 -5.910156 2.546875 -5.863281 2.1875 -5.765625 C 1.828125 -5.667969 1.476562 -5.542969 1.132812 -5.390625 L 0.9375 -5.390625 L 0.9375 -7.15625 C 1.164062 -7.21875 1.527344 -7.296875 2.03125 -7.386719 C 2.535156 -7.476562 3.042969 -7.519531 3.554688 -7.519531 C 4.8125 -7.519531 5.730469 -7.308594 6.304688 -6.890625 C 6.878906 -6.472656 7.167969 -5.832031 7.167969 -4.972656 L 7.167969 0 L 4.902344 0 L 4.902344 -0.773438 M 6.179688 -10.652344 C 6.179688 -9.84375 5.957031 -9.226562 5.515625 -8.804688 C 5.078125 -8.382812 4.496094 -8.171875 3.777344 -8.171875 C 2.996094 -8.171875 2.398438 -8.382812 1.984375 -8.804688 C 1.574219 -9.226562 1.367188 -9.84375 1.367188 -10.652344 L 2.683594 -10.652344 C 2.683594 -10.453125 2.699219 -10.273438 2.738281 -10.117188 C 2.773438 -9.960938 2.835938 -9.820312 2.921875 -9.699219 C 3.011719 -9.582031 3.121094 -9.492188 3.253906 -9.421875 C 3.390625 -9.355469 3.5625 -9.324219 3.777344 -9.324219 C 3.960938 -9.324219 4.128906 -9.359375 4.269531 -9.425781 C 4.414062 -9.496094 4.527344 -9.585938 4.609375 -9.699219 C 4.703125 -9.835938 4.769531 -9.972656 4.808594 -10.109375 C 4.84375 -10.25 4.863281 -10.429688 4.863281 -10.652344 L 6.179688 -10.652344 M 5.539062 -12.578125 L 4.1875 -10.847656 L 3.085938 -10.847656 L 3.894531 -12.578125 Z "/>
</g>
<g id="glyph-0-2">
<path d="M 9.609375 0 L 9.609375 -3.652344 C 9.609375 -4.011719 9.601562 -4.316406 9.589844 -4.5625 C 9.578125 -4.8125 9.539062 -5.011719 9.472656 -5.167969 C 9.40625 -5.324219 9.304688 -5.4375 9.171875 -5.511719 C 9.03125 -5.582031 8.839844 -5.617188 8.59375 -5.617188 C 8.421875 -5.617188 8.25 -5.582031 8.078125 -5.503906 C 7.910156 -5.429688 7.726562 -5.320312 7.527344 -5.183594 L 7.527344 0 L 5.234375 0 L 5.234375 -3.652344 C 5.234375 -4.007812 5.226562 -4.3125 5.210938 -4.5625 C 5.195312 -4.808594 5.15625 -5.011719 5.089844 -5.167969 C 5.027344 -5.324219 4.925781 -5.4375 4.789062 -5.511719 C 4.652344 -5.582031 4.460938 -5.617188 4.21875 -5.617188 C 4.03125 -5.617188 3.851562 -5.574219 3.671875 -5.488281 C 3.492188 -5.402344 3.320312 -5.300781 3.152344 -5.183594 L 3.152344 0 L 0.871094 0 L 0.871094 -7.3125 L 3.152344 -7.3125 L 3.152344 -6.503906 C 3.523438 -6.820312 3.875 -7.066406 4.207031 -7.246094 C 4.535156 -7.425781 4.90625 -7.511719 5.320312 -7.511719 C 5.765625 -7.511719 6.160156 -7.40625 6.496094 -7.195312 C 6.835938 -6.980469 7.09375 -6.664062 7.273438 -6.242188 C 7.710938 -6.652344 8.125 -6.964844 8.511719 -7.183594 C 8.902344 -7.402344 9.292969 -7.511719 9.695312 -7.511719 C 10.03125 -7.511719 10.335938 -7.457031 10.605469 -7.351562 C 10.875 -7.242188 11.101562 -7.078125 11.289062 -6.863281 C 11.492188 -6.628906 11.644531 -6.347656 11.746094 -6.023438 C 11.851562 -5.703125 11.902344 -5.28125 11.902344 -4.757812 L 11.902344 0 Z "/>
</g>
<g id="glyph-0-3">
</g>
<g id="glyph-0-4">
<path d="M 5.710938 -3.710938 C 5.710938 -4.441406 5.597656 -4.960938 5.378906 -5.273438 C 5.15625 -5.585938 4.816406 -5.742188 4.355469 -5.742188 C 4.152344 -5.742188 3.949219 -5.710938 3.746094 -5.644531 C 3.542969 -5.578125 3.347656 -5.480469 3.152344 -5.351562 L 3.152344 -1.679688 C 3.304688 -1.617188 3.457031 -1.578125 3.609375 -1.554688 C 3.765625 -1.535156 3.917969 -1.523438 4.070312 -1.523438 C 4.621094 -1.523438 5.03125 -1.707031 5.300781 -2.070312 C 5.574219 -2.433594 5.710938 -2.980469 5.710938 -3.710938 M 8.039062 -3.757812 C 8.039062 -2.59375 7.746094 -1.652344 7.15625 -0.933594 C 6.566406 -0.214844 5.832031 0.144531 4.960938 0.144531 C 4.597656 0.144531 4.28125 0.101562 4.011719 0.0195312 C 3.742188 -0.0625 3.453125 -0.191406 3.152344 -0.363281 L 3.054688 0 L 0.871094 0 L 0.871094 -10.128906 L 3.152344 -10.128906 L 3.152344 -6.550781 C 3.484375 -6.835938 3.824219 -7.066406 4.171875 -7.246094 C 4.519531 -7.425781 4.921875 -7.511719 5.378906 -7.511719 C 6.226562 -7.511719 6.882812 -7.179688 7.347656 -6.515625 C 7.808594 -5.851562 8.039062 -4.933594 8.039062 -3.757812 Z "/>
</g>
<g id="glyph-0-5">
<path d="M 3.152344 0 L 0.871094 0 L 0.871094 -7.3125 L 3.152344 -7.3125 L 3.152344 0 M 4.128906 -10.910156 L 2.175781 -8.351562 L 0.625 -8.351562 L 1.972656 -10.910156 Z "/>
</g>
<g id="glyph-0-6">
<path d="M 7.519531 2.683594 L 5.242188 2.683594 L 5.242188 -0.714844 C 5.082031 -0.585938 4.914062 -0.457031 4.738281 -0.335938 C 4.566406 -0.210938 4.402344 -0.113281 4.246094 -0.046875 C 4.050781 0.046875 3.871094 0.109375 3.710938 0.148438 C 3.550781 0.183594 3.332031 0.203125 3.058594 0.203125 C 2.230469 0.203125 1.570312 -0.144531 1.085938 -0.832031 C 0.59375 -1.523438 0.351562 -2.445312 0.351562 -3.601562 C 0.351562 -4.238281 0.433594 -4.792969 0.597656 -5.261719 C 0.765625 -5.730469 0.992188 -6.136719 1.28125 -6.484375 C 1.546875 -6.800781 1.867188 -7.050781 2.246094 -7.234375 C 2.625 -7.421875 3.023438 -7.511719 3.445312 -7.511719 C 3.804688 -7.511719 4.117188 -7.46875 4.382812 -7.375 C 4.652344 -7.285156 4.933594 -7.15625 5.226562 -6.984375 L 5.3125 -7.3125 L 7.519531 -7.3125 L 7.519531 2.683594 M 5.242188 -2.019531 L 5.242188 -5.605469 C 5.128906 -5.660156 4.980469 -5.707031 4.796875 -5.746094 C 4.617188 -5.78125 4.460938 -5.800781 4.328125 -5.800781 C 3.78125 -5.800781 3.371094 -5.609375 3.09375 -5.226562 C 2.820312 -4.847656 2.683594 -4.3125 2.683594 -3.625 C 2.683594 -2.90625 2.792969 -2.386719 3.011719 -2.0625 C 3.230469 -1.742188 3.585938 -1.582031 4.074219 -1.582031 C 4.273438 -1.582031 4.476562 -1.621094 4.679688 -1.699219 C 4.886719 -1.777344 5.070312 -1.882812 5.242188 -2.019531 Z "/>
</g>
<g id="glyph-0-7">
<path d="M 7.664062 0 L 5.382812 0 L 5.382812 -0.808594 C 4.988281 -0.476562 4.625 -0.226562 4.296875 -0.0546875 C 3.96875 0.117188 3.574219 0.203125 3.117188 0.203125 C 2.394531 0.203125 1.828125 -0.0273438 1.421875 -0.484375 C 1.015625 -0.941406 0.8125 -1.632812 0.8125 -2.550781 L 0.8125 -7.3125 L 3.105469 -7.3125 L 3.105469 -3.683594 C 3.105469 -3.308594 3.113281 -3 3.132812 -2.761719 C 3.152344 -2.523438 3.199219 -2.320312 3.273438 -2.15625 C 3.34375 -2.003906 3.453125 -1.886719 3.597656 -1.808594 C 3.742188 -1.730469 3.945312 -1.691406 4.207031 -1.691406 C 4.367188 -1.691406 4.554688 -1.730469 4.773438 -1.808594 C 4.996094 -1.886719 5.199219 -1.996094 5.382812 -2.128906 L 5.382812 -7.3125 L 7.664062 -7.3125 Z "/>
</g>
<g id="glyph-0-8">
<path d="M 7.695312 -7.3125 L 4.003906 2.683594 L 1.554688 2.683594 L 2.664062 -0.175781 L -0.0195312 -7.3125 L 2.375 -7.3125 L 3.914062 -2.726562 L 5.351562 -7.3125 Z "/>
</g>
<g id="glyph-0-9">
<path d="M 4.617188 0.195312 C 3.234375 0.195312 2.179688 -0.132812 1.441406 -0.792969 C 0.707031 -1.453125 0.339844 -2.394531 0.339844 -3.613281 C 0.339844 -4.808594 0.679688 -5.757812 1.367188 -6.472656 C 2.054688 -7.183594 3.011719 -7.539062 4.246094 -7.539062 C 5.363281 -7.539062 6.207031 -7.238281 6.769531 -6.632812 C 7.335938 -6.03125 7.617188 -5.167969 7.617188 -4.042969 L 7.617188 -3.222656 L 2.625 -3.222656 C 2.644531 -2.882812 2.71875 -2.601562 2.839844 -2.375 C 2.960938 -2.144531 3.121094 -1.964844 3.320312 -1.828125 C 3.515625 -1.695312 3.742188 -1.597656 4.003906 -1.539062 C 4.265625 -1.480469 4.546875 -1.453125 4.855469 -1.453125 C 5.121094 -1.453125 5.382812 -1.480469 5.636719 -1.539062 C 5.894531 -1.597656 6.128906 -1.675781 6.339844 -1.769531 C 6.527344 -1.851562 6.699219 -1.941406 6.859375 -2.039062 C 7.015625 -2.132812 7.144531 -2.21875 7.246094 -2.292969 L 7.488281 -2.292969 L 7.488281 -0.410156 C 7.300781 -0.335938 7.128906 -0.269531 6.976562 -0.203125 C 6.820312 -0.140625 6.609375 -0.078125 6.339844 -0.0117188 C 6.09375 0.0507812 5.839844 0.101562 5.574219 0.140625 C 5.3125 0.175781 4.992188 0.195312 4.617188 0.195312 M 5.371094 -4.597656 C 5.359375 -5.078125 5.246094 -5.445312 5.035156 -5.695312 C 4.824219 -5.949219 4.503906 -6.074219 4.070312 -6.074219 C 3.625 -6.074219 3.28125 -5.941406 3.03125 -5.675781 C 2.78125 -5.414062 2.644531 -5.050781 2.617188 -4.597656 L 5.371094 -4.597656 M 6.933594 -8.351562 L 5.246094 -8.351562 L 4.171875 -9.738281 L 3.105469 -8.351562 L 1.445312 -8.351562 L 3.40625 -10.910156 L 4.972656 -10.910156 L 6.933594 -8.351562 M 9.257812 -10.910156 L 7.902344 -9.179688 L 6.804688 -9.179688 L 7.609375 -10.910156 Z "/>
</g>
<g id="glyph-0-10">
<path d="M 3.671875 0.144531 C 2.742188 0.144531 2.066406 -0.046875 1.644531 -0.429688 C 1.21875 -0.8125 1.007812 -1.4375 1.007812 -2.304688 L 1.007812 -5.722656 L 0.136719 -5.722656 L 0.136719 -7.3125 L 1.007812 -7.3125 L 1.007812 -9.402344 L 3.289062 -9.402344 L 3.289062 -7.3125 L 5.480469 -7.3125 L 5.480469 -5.722656 L 3.289062 -5.722656 L 3.289062 -3.132812 C 3.289062 -2.875 3.289062 -2.652344 3.292969 -2.460938 C 3.296875 -2.269531 3.332031 -2.097656 3.398438 -1.945312 C 3.460938 -1.792969 3.566406 -1.675781 3.71875 -1.585938 C 3.875 -1.496094 4.097656 -1.453125 4.394531 -1.453125 C 4.515625 -1.453125 4.675781 -1.476562 4.875 -1.53125 C 5.070312 -1.582031 5.207031 -1.628906 5.285156 -1.671875 L 5.480469 -1.671875 L 5.480469 -0.0664062 C 5.234375 0 4.972656 0.0507812 4.695312 0.0859375 C 4.417969 0.125 4.074219 0.144531 3.671875 0.144531 Z "/>
</g>
<g id="glyph-0-11">
<path d="M 4.617188 0.195312 C 3.234375 0.195312 2.179688 -0.132812 1.441406 -0.792969 C 0.707031 -1.453125 0.339844 -2.394531 0.339844 -3.613281 C 0.339844 -4.808594 0.679688 -5.757812 1.367188 -6.472656 C 2.054688 -7.183594 3.011719 -7.539062 4.246094 -7.539062 C 5.363281 -7.539062 6.207031 -7.238281 6.769531 -6.632812 C 7.335938 -6.03125 7.617188 -5.167969 7.617188 -4.042969 L 7.617188 -3.222656 L 2.625 -3.222656 C 2.644531 -2.882812 2.71875 -2.601562 2.839844 -2.375 C 2.960938 -2.144531 3.121094 -1.964844 3.320312 -1.828125 C 3.515625 -1.695312 3.742188 -1.597656 4.003906 -1.539062 C 4.265625 -1.480469 4.546875 -1.453125 4.855469 -1.453125 C 5.121094 -1.453125 5.382812 -1.480469 5.636719 -1.539062 C 5.894531 -1.597656 6.128906 -1.675781 6.339844 -1.769531 C 6.527344 -1.851562 6.699219 -1.941406 6.859375 -2.039062 C 7.015625 -2.132812 7.144531 -2.21875 7.246094 -2.292969 L 7.488281 -2.292969 L 7.488281 -0.410156 C 7.300781 -0.335938 7.128906 -0.269531 6.976562 -0.203125 C 6.820312 -0.140625 6.609375 -0.078125 6.339844 -0.0117188 C 6.09375 0.0507812 5.839844 0.101562 5.574219 0.140625 C 5.3125 0.175781 4.992188 0.195312 4.617188 0.195312 M 5.371094 -4.597656 C 5.359375 -5.078125 5.246094 -5.445312 5.035156 -5.695312 C 4.824219 -5.949219 4.503906 -6.074219 4.070312 -6.074219 C 3.625 -6.074219 3.28125 -5.941406 3.03125 -5.675781 C 2.78125 -5.414062 2.644531 -5.050781 2.617188 -4.597656 L 5.371094 -4.597656 M 6.933594 -8.351562 L 5.246094 -8.351562 L 4.171875 -9.738281 L 3.105469 -8.351562 L 1.445312 -8.351562 L 3.40625 -10.910156 L 4.972656 -10.910156 L 6.933594 -8.351562 M 8.425781 -11.199219 C 8.425781 -10.882812 8.34375 -10.644531 8.179688 -10.484375 C 8.015625 -10.328125 7.8125 -10.203125 7.566406 -10.117188 L 7.566406 -9.734375 L 6.40625 -9.734375 L 6.40625 -10.460938 C 6.609375 -10.515625 6.765625 -10.59375 6.867188 -10.695312 C 6.972656 -10.800781 7.023438 -10.9375 7.023438 -11.105469 C 7.023438 -11.210938 6.984375 -11.292969 6.902344 -11.355469 C 6.820312 -11.421875 6.707031 -11.453125 6.5625 -11.453125 C 6.429688 -11.453125 6.320312 -11.441406 6.238281 -11.421875 C 6.160156 -11.402344 6.066406 -11.375 5.964844 -11.335938 L 5.945312 -11.335938 L 5.945312 -12.082031 C 6.027344 -12.109375 6.152344 -12.136719 6.320312 -12.160156 C 6.492188 -12.1875 6.667969 -12.199219 6.855469 -12.199219 C 7.375 -12.199219 7.769531 -12.101562 8.03125 -11.902344 C 8.292969 -11.703125 8.425781 -11.46875 8.425781 -11.199219 Z "/>
</g>
<g id="glyph-0-12">
<path d="M 7.722656 0 L 5.429688 0 L 5.429688 -3.625 C 5.429688 -3.921875 5.417969 -4.214844 5.394531 -4.507812 C 5.371094 -4.800781 5.324219 -5.015625 5.261719 -5.15625 C 5.183594 -5.320312 5.070312 -5.4375 4.921875 -5.511719 C 4.773438 -5.582031 4.578125 -5.617188 4.328125 -5.617188 C 4.144531 -5.617188 3.953125 -5.582031 3.761719 -5.515625 C 3.570312 -5.445312 3.367188 -5.335938 3.152344 -5.183594 L 3.152344 0 L 0.871094 0 L 0.871094 -7.3125 L 3.152344 -7.3125 L 3.152344 -6.503906 C 3.523438 -6.820312 3.886719 -7.066406 4.242188 -7.246094 C 4.59375 -7.425781 4.988281 -7.511719 5.417969 -7.511719 C 6.164062 -7.511719 6.734375 -7.277344 7.128906 -6.804688 C 7.523438 -6.335938 7.722656 -5.652344 7.722656 -4.757812 Z "/>
</g>
<g id="glyph-0-13">
<path d="M 7.519531 0 L 5.242188 0 L 5.242188 -0.761719 C 5.09375 -0.640625 4.925781 -0.511719 4.734375 -0.371094 C 4.546875 -0.230469 4.382812 -0.128906 4.238281 -0.0585938 C 4.054688 0.0273438 3.875 0.09375 3.699219 0.136719 C 3.519531 0.179688 3.308594 0.203125 3.058594 0.203125 C 2.226562 0.203125 1.566406 -0.144531 1.082031 -0.832031 C 0.59375 -1.523438 0.351562 -2.445312 0.351562 -3.601562 C 0.351562 -4.238281 0.433594 -4.792969 0.597656 -5.261719 C 0.765625 -5.730469 0.992188 -6.136719 1.28125 -6.484375 C 1.546875 -6.800781 1.867188 -7.050781 2.246094 -7.234375 C 2.625 -7.421875 3.023438 -7.511719 3.445312 -7.511719 C 3.824219 -7.511719 4.140625 -7.472656 4.382812 -7.390625 C 4.628906 -7.3125 4.914062 -7.1875 5.242188 -7.019531 L 5.242188 -10.128906 L 7.519531 -10.128906 L 7.519531 0 M 5.242188 -2.019531 L 5.242188 -5.605469 C 5.128906 -5.660156 4.980469 -5.707031 4.796875 -5.746094 C 4.617188 -5.78125 4.460938 -5.800781 4.328125 -5.800781 C 3.78125 -5.800781 3.371094 -5.609375 3.09375 -5.226562 C 2.820312 -4.847656 2.683594 -4.3125 2.683594 -3.625 C 2.683594 -2.90625 2.792969 -2.386719 3.011719 -2.0625 C 3.230469 -1.742188 3.585938 -1.582031 4.074219 -1.582031 C 4.273438 -1.582031 4.476562 -1.621094 4.679688 -1.699219 C 4.886719 -1.777344 5.070312 -1.882812 5.242188 -2.019531 Z "/>
</g>
<g id="glyph-0-14">
<path d="M 7.664062 0 L 5.382812 0 L 5.382812 -0.808594 C 4.988281 -0.476562 4.625 -0.226562 4.296875 -0.0546875 C 3.96875 0.117188 3.574219 0.203125 3.117188 0.203125 C 2.394531 0.203125 1.828125 -0.0273438 1.421875 -0.484375 C 1.015625 -0.941406 0.8125 -1.632812 0.8125 -2.550781 L 0.8125 -7.3125 L 3.105469 -7.3125 L 3.105469 -3.683594 C 3.105469 -3.308594 3.113281 -3 3.132812 -2.761719 C 3.152344 -2.523438 3.199219 -2.320312 3.273438 -2.15625 C 3.34375 -2.003906 3.453125 -1.886719 3.597656 -1.808594 C 3.742188 -1.730469 3.945312 -1.691406 4.207031 -1.691406 C 4.367188 -1.691406 4.554688 -1.730469 4.773438 -1.808594 C 4.996094 -1.886719 5.199219 -1.996094 5.382812 -2.128906 L 5.382812 -7.3125 L 7.664062 -7.3125 L 7.664062 0 M 5.390625 2.753906 L 3.046875 2.753906 L 3.046875 0.976562 L 5.390625 0.976562 Z "/>
</g>
<g id="glyph-0-15">
<path d="M 5.242188 -2.304688 L 5.242188 -5.617188 C 5.128906 -5.671875 4.988281 -5.714844 4.824219 -5.75 C 4.660156 -5.785156 4.496094 -5.800781 4.328125 -5.800781 C 3.78125 -5.800781 3.371094 -5.625 3.09375 -5.269531 C 2.820312 -4.917969 2.683594 -4.421875 2.683594 -3.789062 C 2.683594 -3.472656 2.703125 -3.203125 2.742188 -2.984375 C 2.785156 -2.765625 2.863281 -2.570312 2.976562 -2.402344 C 3.082031 -2.238281 3.226562 -2.113281 3.402344 -2.027344 C 3.578125 -1.941406 3.800781 -1.902344 4.074219 -1.902344 C 4.28125 -1.902344 4.480469 -1.9375 4.679688 -2.003906 C 4.875 -2.074219 5.0625 -2.175781 5.242188 -2.304688 M 7.519531 -0.839844 C 7.519531 -0.164062 7.421875 0.414062 7.226562 0.886719 C 7.03125 1.359375 6.765625 1.726562 6.425781 1.992188 C 6.085938 2.261719 5.679688 2.457031 5.207031 2.574219 C 4.734375 2.695312 4.210938 2.753906 3.632812 2.753906 C 3.148438 2.753906 2.683594 2.722656 2.25 2.660156 C 1.8125 2.597656 1.433594 2.523438 1.113281 2.441406 L 1.113281 0.613281 L 1.378906 0.613281 C 1.492188 0.65625 1.625 0.703125 1.78125 0.753906 C 1.933594 0.808594 2.089844 0.855469 2.246094 0.898438 C 2.433594 0.945312 2.613281 0.984375 2.792969 1.015625 C 2.972656 1.046875 3.152344 1.0625 3.339844 1.0625 C 3.726562 1.0625 4.046875 1.019531 4.304688 0.941406 C 4.566406 0.859375 4.757812 0.746094 4.890625 0.597656 C 5.019531 0.445312 5.109375 0.269531 5.164062 0.0625 C 5.214844 -0.144531 5.242188 -0.402344 5.242188 -0.714844 L 5.242188 -0.851562 C 4.984375 -0.628906 4.6875 -0.445312 4.351562 -0.308594 C 4.015625 -0.171875 3.667969 -0.105469 3.3125 -0.105469 C 2.367188 -0.105469 1.636719 -0.414062 1.125 -1.027344 C 0.609375 -1.644531 0.351562 -2.582031 0.351562 -3.839844 C 0.351562 -4.414062 0.429688 -4.929688 0.589844 -5.382812 C 0.746094 -5.839844 0.96875 -6.226562 1.25 -6.550781 C 1.519531 -6.859375 1.84375 -7.09375 2.226562 -7.261719 C 2.609375 -7.429688 3.003906 -7.511719 3.417969 -7.511719 C 3.792969 -7.511719 4.125 -7.464844 4.421875 -7.371094 C 4.714844 -7.273438 4.984375 -7.144531 5.226562 -6.984375 L 5.3125 -7.3125 L 7.519531 -7.3125 Z "/>
</g>
<g id="glyph-0-16">
<path d="M 7.722656 0 L 5.429688 0 L 5.429688 -3.625 C 5.429688 -3.921875 5.417969 -4.214844 5.394531 -4.507812 C 5.371094 -4.800781 5.324219 -5.015625 5.261719 -5.15625 C 5.183594 -5.320312 5.070312 -5.4375 4.921875 -5.511719 C 4.773438 -5.582031 4.578125 -5.617188 4.328125 -5.617188 C 4.144531 -5.617188 3.953125 -5.582031 3.761719 -5.515625 C 3.570312 -5.445312 3.367188 -5.335938 3.152344 -5.183594 L 3.152344 0 L 0.871094 0 L 0.871094 -10.128906 L 3.152344 -10.128906 L 3.152344 -6.503906 C 3.523438 -6.820312 3.886719 -7.066406 4.242188 -7.246094 C 4.59375 -7.425781 4.988281 -7.511719 5.417969 -7.511719 C 6.164062 -7.511719 6.734375 -7.277344 7.128906 -6.804688 C 7.523438 -6.335938 7.722656 -5.652344 7.722656 -4.757812 Z "/>
</g>
<g id="glyph-0-17">
<path d="M 4.902344 -1.90625 L 4.902344 -3.429688 C 4.515625 -3.390625 4.203125 -3.359375 3.964844 -3.328125 C 3.726562 -3.300781 3.492188 -3.246094 3.261719 -3.164062 C 3.0625 -3.09375 2.90625 -2.988281 2.796875 -2.847656 C 2.683594 -2.707031 2.628906 -2.519531 2.628906 -2.285156 C 2.628906 -1.941406 2.722656 -1.707031 2.90625 -1.578125 C 3.089844 -1.449219 3.363281 -1.386719 3.722656 -1.386719 C 3.921875 -1.386719 4.128906 -1.433594 4.335938 -1.523438 C 4.542969 -1.613281 4.734375 -1.742188 4.902344 -1.90625 M 4.902344 -0.773438 C 4.746094 -0.644531 4.605469 -0.527344 4.484375 -0.421875 C 4.359375 -0.320312 4.191406 -0.214844 3.984375 -0.109375 C 3.78125 -0.0117188 3.582031 0.0664062 3.386719 0.117188 C 3.195312 0.167969 2.925781 0.195312 2.578125 0.195312 C 1.929688 0.195312 1.394531 -0.0234375 0.964844 -0.457031 C 0.539062 -0.890625 0.324219 -1.4375 0.324219 -2.097656 C 0.324219 -2.640625 0.433594 -3.078125 0.652344 -3.410156 C 0.867188 -3.746094 1.179688 -4.011719 1.589844 -4.207031 C 2 -4.40625 2.492188 -4.542969 3.066406 -4.621094 C 3.640625 -4.699219 4.253906 -4.761719 4.914062 -4.804688 L 4.914062 -4.84375 C 4.914062 -5.246094 4.765625 -5.527344 4.46875 -5.679688 C 4.171875 -5.835938 3.726562 -5.910156 3.132812 -5.910156 C 2.863281 -5.910156 2.546875 -5.863281 2.1875 -5.765625 C 1.828125 -5.667969 1.476562 -5.542969 1.132812 -5.390625 L 0.9375 -5.390625 L 0.9375 -7.15625 C 1.164062 -7.21875 1.527344 -7.296875 2.03125 -7.386719 C 2.535156 -7.476562 3.042969 -7.519531 3.554688 -7.519531 C 4.8125 -7.519531 5.730469 -7.308594 6.304688 -6.890625 C 6.878906 -6.472656 7.167969 -5.832031 7.167969 -4.972656 L 7.167969 0 L 4.902344 0 L 4.902344 -0.773438 M 6.515625 -8.351562 L 4.832031 -8.351562 L 3.757812 -9.738281 L 2.6875 -8.351562 L 1.027344 -8.351562 L 2.988281 -10.910156 L 4.558594 -10.910156 Z "/>
</g>
<g id="glyph-0-18">
<path d="M 3.097656 0.203125 C 2.5625 0.203125 2.050781 0.144531 1.570312 0.0273438 C 1.09375 -0.0898438 0.695312 -0.226562 0.382812 -0.382812 L 0.382812 -2.3125 L 0.574219 -2.3125 C 0.679688 -2.230469 0.804688 -2.136719 0.945312 -2.039062 C 1.082031 -1.9375 1.277344 -1.832031 1.523438 -1.726562 C 1.734375 -1.625 1.976562 -1.539062 2.242188 -1.46875 C 2.507812 -1.394531 2.800781 -1.359375 3.113281 -1.359375 C 3.433594 -1.359375 3.714844 -1.410156 3.960938 -1.511719 C 4.207031 -1.609375 4.328125 -1.769531 4.328125 -1.984375 C 4.328125 -2.15625 4.273438 -2.28125 4.160156 -2.371094 C 4.046875 -2.457031 3.828125 -2.539062 3.503906 -2.617188 C 3.328125 -2.660156 3.109375 -2.707031 2.84375 -2.757812 C 2.582031 -2.808594 2.347656 -2.863281 2.140625 -2.929688 C 1.570312 -3.109375 1.136719 -3.371094 0.847656 -3.71875 C 0.5625 -4.070312 0.417969 -4.527344 0.417969 -5.097656 C 0.417969 -5.421875 0.492188 -5.730469 0.640625 -6.019531 C 0.789062 -6.308594 1.011719 -6.566406 1.300781 -6.789062 C 1.59375 -7.011719 1.953125 -7.1875 2.378906 -7.316406 C 2.808594 -7.449219 3.289062 -7.511719 3.828125 -7.511719 C 4.339844 -7.511719 4.8125 -7.460938 5.242188 -7.359375 C 5.671875 -7.257812 6.03125 -7.136719 6.328125 -6.992188 L 6.328125 -5.144531 L 6.144531 -5.144531 C 6.066406 -5.203125 5.945312 -5.285156 5.773438 -5.386719 C 5.605469 -5.488281 5.441406 -5.578125 5.28125 -5.652344 C 5.089844 -5.738281 4.875 -5.808594 4.640625 -5.867188 C 4.402344 -5.921875 4.160156 -5.949219 3.914062 -5.949219 C 3.582031 -5.949219 3.304688 -5.894531 3.074219 -5.78125 C 2.847656 -5.667969 2.734375 -5.519531 2.734375 -5.332031 C 2.734375 -5.167969 2.789062 -5.035156 2.902344 -4.941406 C 3.015625 -4.847656 3.261719 -4.753906 3.640625 -4.660156 C 3.835938 -4.613281 4.058594 -4.566406 4.3125 -4.523438 C 4.566406 -4.476562 4.8125 -4.414062 5.046875 -4.335938 C 5.570312 -4.167969 5.96875 -3.917969 6.238281 -3.589844 C 6.511719 -3.261719 6.648438 -2.828125 6.648438 -2.285156 C 6.648438 -1.941406 6.566406 -1.617188 6.40625 -1.304688 C 6.246094 -0.996094 6.019531 -0.734375 5.722656 -0.519531 C 5.410156 -0.289062 5.042969 -0.113281 4.617188 0.0117188 C 4.195312 0.140625 3.6875 0.203125 3.097656 0.203125 Z "/>
</g>
<g id="glyph-0-19">
<path d="M 7.664062 0 L 5.382812 0 L 5.382812 -0.808594 C 4.988281 -0.476562 4.625 -0.226562 4.296875 -0.0546875 C 3.96875 0.117188 3.574219 0.203125 3.117188 0.203125 C 2.394531 0.203125 1.828125 -0.0273438 1.421875 -0.484375 C 1.015625 -0.941406 0.8125 -1.632812 0.8125 -2.550781 L 0.8125 -7.3125 L 3.105469 -7.3125 L 3.105469 -3.683594 C 3.105469 -3.308594 3.113281 -3 3.132812 -2.761719 C 3.152344 -2.523438 3.199219 -2.320312 3.273438 -2.15625 C 3.34375 -2.003906 3.453125 -1.886719 3.597656 -1.808594 C 3.742188 -1.730469 3.945312 -1.691406 4.207031 -1.691406 C 4.367188 -1.691406 4.554688 -1.730469 4.773438 -1.808594 C 4.996094 -1.886719 5.199219 -1.996094 5.382812 -2.128906 L 5.382812 -7.3125 L 7.707031 -7.3125 C 8.0625 -7.3125 8.316406 -7.398438 8.464844 -7.574219 C 8.609375 -7.75 8.683594 -7.992188 8.683594 -8.300781 C 8.683594 -8.472656 8.660156 -8.644531 8.605469 -8.816406 C 8.554688 -8.984375 8.503906 -9.121094 8.457031 -9.226562 L 8.457031 -9.347656 L 9.757812 -9.347656 C 9.800781 -9.203125 9.839844 -8.992188 9.871094 -8.726562 C 9.898438 -8.460938 9.914062 -8.25 9.914062 -8.09375 C 9.914062 -7.425781 9.726562 -6.925781 9.34375 -6.597656 C 8.964844 -6.269531 8.425781 -6.105469 7.722656 -6.105469 L 7.664062 -6.105469 L 7.664062 0 M 5.390625 2.753906 L 3.046875 2.753906 L 3.046875 0.976562 L 5.390625 0.976562 Z "/>
</g>
<g id="glyph-0-20">
<path d="M 4.460938 0.195312 C 3.855469 0.195312 3.304688 0.121094 2.800781 -0.03125 C 2.300781 -0.183594 1.867188 -0.417969 1.496094 -0.734375 C 1.132812 -1.050781 0.847656 -1.449219 0.644531 -1.929688 C 0.441406 -2.410156 0.339844 -2.976562 0.339844 -3.625 C 0.339844 -4.324219 0.449219 -4.917969 0.671875 -5.410156 C 0.890625 -5.902344 1.191406 -6.304688 1.570312 -6.621094 C 1.933594 -6.925781 2.363281 -7.148438 2.855469 -7.292969 C 3.347656 -7.441406 3.859375 -7.511719 4.394531 -7.511719 C 4.796875 -7.511719 5.203125 -7.464844 5.605469 -7.371094 C 6.007812 -7.28125 6.414062 -7.132812 6.824219 -6.925781 L 6.824219 -4.972656 L 6.53125 -4.972656 C 6.4375 -5.0625 6.328125 -5.15625 6.195312 -5.261719 C 6.0625 -5.363281 5.917969 -5.460938 5.761719 -5.546875 C 5.597656 -5.636719 5.410156 -5.714844 5.203125 -5.777344 C 4.992188 -5.839844 4.761719 -5.871094 4.503906 -5.871094 C 3.921875 -5.871094 3.472656 -5.667969 3.152344 -5.261719 C 2.835938 -4.859375 2.675781 -4.3125 2.675781 -3.625 C 2.675781 -2.894531 2.847656 -2.347656 3.1875 -1.984375 C 3.527344 -1.625 3.980469 -1.445312 4.542969 -1.445312 C 4.832031 -1.445312 5.082031 -1.476562 5.300781 -1.542969 C 5.515625 -1.609375 5.703125 -1.6875 5.859375 -1.777344 C 6.011719 -1.867188 6.140625 -1.960938 6.25 -2.0625 C 6.359375 -2.15625 6.453125 -2.246094 6.53125 -2.324219 L 6.824219 -2.324219 L 6.824219 -0.371094 C 6.691406 -0.316406 6.542969 -0.25 6.371094 -0.175781 C 6.199219 -0.101562 6.023438 -0.0429688 5.847656 0.0078125 C 5.625 0.0664062 5.417969 0.113281 5.222656 0.148438 C 5.03125 0.179688 4.777344 0.195312 4.460938 0.195312 Z "/>
</g>
<g id="glyph-0-21">
<path d="M 3.152344 0 L 0.871094 0 L 0.871094 -7.3125 L 3.152344 -7.3125 L 3.152344 0 M 3.398438 -9.910156 C 3.398438 -9.59375 3.316406 -9.355469 3.152344 -9.195312 C 2.992188 -9.039062 2.785156 -8.914062 2.539062 -8.828125 L 2.539062 -8.445312 L 1.378906 -8.445312 L 1.378906 -9.171875 C 1.585938 -9.226562 1.738281 -9.304688 1.84375 -9.40625 C 1.945312 -9.511719 2 -9.648438 2 -9.816406 C 2 -9.921875 1.957031 -10.003906 1.875 -10.066406 C 1.792969 -10.132812 1.679688 -10.164062 1.535156 -10.164062 C 1.402344 -10.164062 1.292969 -10.152344 1.214844 -10.132812 C 1.132812 -10.113281 1.042969 -10.085938 0.9375 -10.046875 L 0.917969 -10.046875 L 0.917969 -10.792969 C 1 -10.820312 1.125 -10.847656 1.296875 -10.871094 C 1.464844 -10.898438 1.644531 -10.910156 1.828125 -10.910156 C 2.351562 -10.910156 2.742188 -10.8125 3.003906 -10.613281 C 3.265625 -10.414062 3.398438 -10.179688 3.398438 -9.910156 Z "/>
</g>
<g id="glyph-0-22">
<path d="M 4.902344 -1.90625 L 4.902344 -3.429688 C 4.515625 -3.390625 4.203125 -3.359375 3.964844 -3.328125 C 3.726562 -3.300781 3.492188 -3.246094 3.261719 -3.164062 C 3.0625 -3.09375 2.90625 -2.988281 2.796875 -2.847656 C 2.683594 -2.707031 2.628906 -2.519531 2.628906 -2.285156 C 2.628906 -1.941406 2.722656 -1.707031 2.90625 -1.578125 C 3.089844 -1.449219 3.363281 -1.386719 3.722656 -1.386719 C 3.921875 -1.386719 4.128906 -1.433594 4.335938 -1.523438 C 4.542969 -1.613281 4.734375 -1.742188 4.902344 -1.90625 M 4.902344 -0.773438 C 4.746094 -0.644531 4.605469 -0.527344 4.484375 -0.421875 C 4.359375 -0.320312 4.191406 -0.214844 3.984375 -0.109375 C 3.78125 -0.0117188 3.582031 0.0664062 3.386719 0.117188 C 3.195312 0.167969 2.925781 0.195312 2.578125 0.195312 C 1.929688 0.195312 1.394531 -0.0234375 0.964844 -0.457031 C 0.539062 -0.890625 0.324219 -1.4375 0.324219 -2.097656 C 0.324219 -2.640625 0.433594 -3.078125 0.652344 -3.410156 C 0.867188 -3.746094 1.179688 -4.011719 1.589844 -4.207031 C 2 -4.40625 2.492188 -4.542969 3.066406 -4.621094 C 3.640625 -4.699219 4.253906 -4.761719 4.914062 -4.804688 L 4.914062 -4.84375 C 4.914062 -5.246094 4.765625 -5.527344 4.46875 -5.679688 C 4.171875 -5.835938 3.726562 -5.910156 3.132812 -5.910156 C 2.863281 -5.910156 2.546875 -5.863281 2.1875 -5.765625 C 1.828125 -5.667969 1.476562 -5.542969 1.132812 -5.390625 L 0.9375 -5.390625 L 0.9375 -7.15625 C 1.164062 -7.21875 1.527344 -7.296875 2.03125 -7.386719 C 2.535156 -7.476562 3.042969 -7.519531 3.554688 -7.519531 C 4.8125 -7.519531 5.730469 -7.308594 6.304688 -6.890625 C 6.878906 -6.472656 7.167969 -5.832031 7.167969 -4.972656 L 7.167969 0 L 4.902344 0 L 4.902344 -0.773438 M 6.179688 -10.652344 C 6.179688 -9.84375 5.957031 -9.226562 5.515625 -8.804688 C 5.078125 -8.382812 4.496094 -8.171875 3.777344 -8.171875 C 2.996094 -8.171875 2.398438 -8.382812 1.984375 -8.804688 C 1.574219 -9.226562 1.367188 -9.84375 1.367188 -10.652344 L 2.683594 -10.652344 C 2.683594 -10.453125 2.699219 -10.273438 2.738281 -10.117188 C 2.773438 -9.960938 2.835938 -9.820312 2.921875 -9.699219 C 3.011719 -9.582031 3.121094 -9.492188 3.253906 -9.421875 C 3.390625 -9.355469 3.5625 -9.324219 3.777344 -9.324219 C 3.960938 -9.324219 4.128906 -9.359375 4.269531 -9.425781 C 4.414062 -9.496094 4.527344 -9.585938 4.609375 -9.699219 C 4.703125 -9.835938 4.769531 -9.972656 4.808594 -10.109375 C 4.84375 -10.25 4.863281 -10.429688 4.863281 -10.652344 L 6.179688 -10.652344 M 4.460938 -10.847656 L 3.359375 -10.847656 L 2.003906 -12.578125 L 3.652344 -12.578125 Z "/>
</g>
<g id="glyph-0-23">
<path d="M 10.90625 0 L 8.484375 0 L 8.484375 -6.425781 L 6.71875 -2.277344 L 5.058594 -2.277344 L 3.292969 -6.425781 L 3.292969 0 L 1.003906 0 L 1.003906 -9.695312 L 3.808594 -9.695312 L 5.957031 -4.910156 L 8.097656 -9.695312 L 10.90625 -9.695312 Z "/>
</g>
<g id="glyph-0-24">
<path d="M 9.832031 -4.84375 C 9.832031 -3.277344 9.410156 -2.042969 8.574219 -1.144531 C 7.738281 -0.246094 6.589844 0.203125 5.128906 0.203125 C 3.667969 0.203125 2.519531 -0.253906 1.6875 -1.164062 C 0.851562 -2.070312 0.4375 -3.296875 0.4375 -4.84375 C 0.4375 -6.402344 0.851562 -7.632812 1.6875 -8.539062 C 2.519531 -9.445312 3.667969 -9.894531 5.128906 -9.894531 C 6.589844 -9.894531 7.738281 -9.445312 8.574219 -8.546875 C 9.410156 -7.644531 9.832031 -6.410156 9.832031 -4.84375 M 7.316406 -4.851562 C 7.316406 -5.425781 7.257812 -5.917969 7.136719 -6.324219 C 7.019531 -6.730469 6.859375 -7.0625 6.660156 -7.324219 C 6.453125 -7.589844 6.214844 -7.777344 5.953125 -7.894531 C 5.691406 -8.007812 5.417969 -8.066406 5.136719 -8.066406 C 4.835938 -8.066406 4.566406 -8.011719 4.324219 -7.90625 C 4.078125 -7.800781 3.84375 -7.609375 3.621094 -7.335938 C 3.421875 -7.085938 3.257812 -6.75 3.132812 -6.335938 C 3.011719 -5.917969 2.949219 -5.421875 2.949219 -4.84375 C 2.949219 -4.25 3.007812 -3.753906 3.125 -3.363281 C 3.242188 -2.96875 3.402344 -2.640625 3.605469 -2.375 C 3.816406 -2.105469 4.050781 -1.914062 4.316406 -1.800781 C 4.582031 -1.683594 4.855469 -1.628906 5.136719 -1.628906 C 5.421875 -1.628906 5.699219 -1.6875 5.96875 -1.8125 C 6.238281 -1.9375 6.472656 -2.128906 6.667969 -2.390625 C 6.875 -2.671875 7.035156 -3 7.148438 -3.375 C 7.261719 -3.75 7.316406 -4.242188 7.316406 -4.851562 M 7.878906 -10.78125 L 6.191406 -10.78125 L 5.117188 -12.167969 L 4.050781 -10.78125 L 2.390625 -10.78125 L 4.347656 -13.339844 L 5.917969 -13.339844 L 7.878906 -10.78125 M 6.289062 2.753906 L 3.945312 2.753906 L 3.945312 0.976562 L 6.289062 0.976562 Z "/>
</g>
<g id="glyph-0-25">
<path d="M 2.863281 0 L 2.863281 -7.84375 L 0 -7.84375 L 0 -9.695312 L 8.164062 -9.695312 L 8.164062 -7.84375 L 5.300781 -7.84375 L 5.300781 0 Z "/>
</g>
<g id="glyph-0-26">
<path d="M 7.890625 -3.652344 C 7.890625 -2.449219 7.5625 -1.503906 6.902344 -0.808594 C 6.246094 -0.117188 5.316406 0.226562 4.113281 0.226562 C 2.921875 0.226562 1.992188 -0.117188 1.332031 -0.808594 C 0.667969 -1.503906 0.339844 -2.449219 0.339844 -3.652344 C 0.339844 -4.867188 0.667969 -5.820312 1.332031 -6.507812 C 1.992188 -7.195312 2.921875 -7.539062 4.113281 -7.539062 C 5.3125 -7.539062 6.242188 -7.191406 6.902344 -6.5 C 7.5625 -5.808594 7.890625 -4.859375 7.890625 -3.652344 M 5.554688 -3.640625 C 5.554688 -4.074219 5.515625 -4.433594 5.445312 -4.722656 C 5.375 -5.011719 5.277344 -5.242188 5.148438 -5.417969 C 5.015625 -5.597656 4.863281 -5.726562 4.695312 -5.796875 C 4.523438 -5.867188 4.332031 -5.90625 4.113281 -5.90625 C 3.910156 -5.90625 3.726562 -5.875 3.5625 -5.808594 C 3.394531 -5.746094 3.246094 -5.628906 3.105469 -5.449219 C 2.976562 -5.28125 2.871094 -5.046875 2.792969 -4.753906 C 2.714844 -4.457031 2.675781 -4.085938 2.675781 -3.640625 C 2.675781 -3.191406 2.710938 -2.832031 2.785156 -2.554688 C 2.859375 -2.28125 2.957031 -2.058594 3.074219 -1.894531 C 3.195312 -1.726562 3.347656 -1.601562 3.527344 -1.523438 C 3.710938 -1.445312 3.914062 -1.40625 4.132812 -1.40625 C 4.316406 -1.40625 4.5 -1.445312 4.691406 -1.523438 C 4.878906 -1.601562 5.03125 -1.71875 5.144531 -1.875 C 5.277344 -2.0625 5.378906 -2.285156 5.449219 -2.546875 C 5.519531 -2.8125 5.554688 -3.175781 5.554688 -3.640625 M 6.925781 -8.351562 L 5.242188 -8.351562 L 4.167969 -9.738281 L 3.097656 -8.351562 L 1.4375 -8.351562 L 3.398438 -10.910156 L 4.96875 -10.910156 Z "/>
</g>
<g id="glyph-0-27">
<path d="M 7.664062 0 L 5.382812 0 L 5.382812 -0.808594 C 4.988281 -0.476562 4.625 -0.226562 4.296875 -0.0546875 C 3.96875 0.117188 3.574219 0.203125 3.117188 0.203125 C 2.394531 0.203125 1.828125 -0.0273438 1.421875 -0.484375 C 1.015625 -0.941406 0.8125 -1.632812 0.8125 -2.550781 L 0.8125 -7.3125 L 3.105469 -7.3125 L 3.105469 -3.683594 C 3.105469 -3.308594 3.113281 -3 3.132812 -2.761719 C 3.152344 -2.523438 3.199219 -2.320312 3.273438 -2.15625 C 3.34375 -2.003906 3.453125 -1.886719 3.597656 -1.808594 C 3.742188 -1.730469 3.945312 -1.691406 4.207031 -1.691406 C 4.367188 -1.691406 4.554688 -1.730469 4.773438 -1.808594 C 4.996094 -1.886719 5.199219 -1.996094 5.382812 -2.128906 L 5.382812 -7.3125 L 7.707031 -7.3125 C 8.0625 -7.3125 8.316406 -7.398438 8.464844 -7.574219 C 8.609375 -7.75 8.683594 -7.992188 8.683594 -8.300781 C 8.683594 -8.472656 8.660156 -8.644531 8.605469 -8.816406 C 8.554688 -8.984375 8.503906 -9.121094 8.457031 -9.226562 L 8.457031 -9.347656 L 9.757812 -9.347656 C 9.800781 -9.203125 9.839844 -8.992188 9.871094 -8.726562 C 9.898438 -8.460938 9.914062 -8.25 9.914062 -8.09375 C 9.914062 -7.425781 9.726562 -6.925781 9.34375 -6.597656 C 8.964844 -6.269531 8.425781 -6.105469 7.722656 -6.105469 L 7.664062 -6.105469 L 7.664062 0 M 6.320312 -10.910156 L 4.367188 -8.351562 L 2.820312 -8.351562 L 4.167969 -10.910156 Z "/>
</g>
</g>
</defs>
<g fill="rgb(100%, 100%, 100%)" fill-opacity="1">
<use xlink:href="#glyph-0-0" x="30" y="33.339844"/>
<use xlink:href="#glyph-0-1" x="40" y="33.339844"/>
<use xlink:href="#glyph-0-2" x="48" y="33.339844"/>
<use xlink:href="#glyph-0-3" x="61" y="33.339844"/>
</g>
<g fill="rgb(96.862745%, 85.098039%, 43.529412%)" fill-opacity="1">
<use xlink:href="#glyph-0-4" x="65" y="33.339844"/>
<use xlink:href="#glyph-0-5" x="73" y="33.339844"/>
<use xlink:href="#glyph-0-3" x="77" y="33.339844"/>
<use xlink:href="#glyph-0-6" x="81" y="33.339844"/>
<use xlink:href="#glyph-0-7" x="89" y="33.339844"/>
<use xlink:href="#glyph-0-8" x="98" y="33.339844"/>
<use xlink:href="#glyph-0-9" x="106" y="33.339844"/>
<use xlink:href="#glyph-0-10" x="114" y="33.339844"/>
</g>
<g fill="rgb(34.509804%, 76.862745%, 86.666667%)" fill-opacity="1">
<use xlink:href="#glyph-0-10" x="30" y="49.433594"/>
<use xlink:href="#glyph-0-7" x="36" y="49.433594"/>
<use xlink:href="#glyph-0-8" x="45" y="49.433594"/>
<use xlink:href="#glyph-0-11" x="53" y="49.433594"/>
<use xlink:href="#glyph-0-12" x="61" y="49.433594"/>
<use xlink:href="#glyph-0-3" x="70" y="49.433594"/>
<use xlink:href="#glyph-0-13" x="74" y="49.433594"/>
<use xlink:href="#glyph-0-14" x="82" y="49.433594"/>
<use xlink:href="#glyph-0-12" x="91" y="49.433594"/>
<use xlink:href="#glyph-0-15" x="100" y="49.433594"/>
</g>
<g fill="rgb(51.372549%, 75.686275%, 40.392157%)" fill-opacity="1">
<use xlink:href="#glyph-0-12" x="112" y="49.433594"/>
<use xlink:href="#glyph-0-16" x="121" y="49.433594"/>
<use xlink:href="#glyph-0-17" x="130" y="49.433594"/>
<use xlink:href="#glyph-0-12" x="138" y="49.433594"/>
<use xlink:href="#glyph-0-3" x="147" y="49.433594"/>
<use xlink:href="#glyph-0-18" x="151" y="49.433594"/>
<use xlink:href="#glyph-0-19" x="158" y="49.433594"/>
</g>
<g fill="rgb(100%, 100%, 100%)" fill-opacity="1">
<use xlink:href="#glyph-0-20" x="30" y="65.527344"/>
<use xlink:href="#glyph-0-16" x="37" y="65.527344"/>
<use xlink:href="#glyph-0-21" x="46" y="65.527344"/>
<use xlink:href="#glyph-0-3" x="50" y="65.527344"/>
<use xlink:href="#glyph-0-4" x="54" y="65.527344"/>
<use xlink:href="#glyph-0-22" x="62" y="65.527344"/>
<use xlink:href="#glyph-0-12" x="70" y="65.527344"/>
<use xlink:href="#glyph-0-15" x="79" y="65.527344"/>
</g>
<g fill="rgb(98.823529%, 38.431373%, 33.333333%)" fill-opacity="1">
<use xlink:href="#glyph-0-23" x="30" y="81.621094"/>
<use xlink:href="#glyph-0-24" x="42" y="81.621094"/>
<use xlink:href="#glyph-0-25" x="52" y="81.621094"/>
<use xlink:href="#glyph-0-3" x="60" y="81.621094"/>
<use xlink:href="#glyph-0-20" x="64" y="81.621094"/>
<use xlink:href="#glyph-0-26" x="71" y="81.621094"/>
<use xlink:href="#glyph-0-12" x="79" y="81.621094"/>
<use xlink:href="#glyph-0-15" x="88" y="81.621094"/>
<use xlink:href="#glyph-0-3" x="96" y="81.621094"/>
<use xlink:href="#glyph-0-10" x="100" y="81.621094"/>
<use xlink:href="#glyph-0-16" x="106" y="81.621094"/>
<use xlink:href="#glyph-0-27" x="115" y="81.621094"/>
<use xlink:href="#glyph-0-20" x="125" y="81.621094"/>
</g>
</svg>
