<?xml version="1.0" encoding="UTF-8"?>
<svg xmlns="http://www.w3.org/2000/svg" xmlns:xlink="http://www.w3.org/1999/xlink" width="600" height="400" viewBox="0 0 600 400">
<defs>
<g>
<g id="glyph-0-0">
<path d="M 1.132812 -2.195312 L 1.132812 -0.144531 L 1.628906 -0.144531 C 1.664062 -0.144531 1.6875 -0.136719 1.703125 -0.125 C 1.71875 -0.113281 1.726562 -0.09375 1.726562 -0.0742188 C 1.726562 -0.0507812 1.71875 -0.0351562 1.703125 -0.0195312 C 1.6875 -0.0078125 1.664062 0 1.628906 0 L 0.488281 0 C 0.457031 0 0.429688 -0.0078125 0.414062 -0.0195312 C 0.402344 -0.0351562 0.394531 -0.0507812 0.394531 -0.0742188 C 0.394531 -0.09375 0.402344 -0.113281 0.414062 -0.125 C 0.429688 -0.136719 0.457031 -0.144531 0.488281 -0.144531 L 0.988281 -0.144531 L 0.988281 -1.996094 L 0.515625 -1.847656 C 0.492188 -1.839844 0.476562 -1.835938 0.464844 -1.835938 C 0.445312 -1.835938 0.429688 -1.84375 0.417969 -1.859375 C 0.402344 -1.871094 0.394531 -1.890625 0.394531 -1.910156 C 0.394531 -1.925781 0.402344 -1.941406 0.414062 -1.957031 C 0.421875 -1.964844 0.441406 -1.976562 0.46875 -1.988281 Z "/>
</g>
<g id="glyph-0-1">
<path d="M 0.589844 -0.976562 L 0.589844 -0.144531 L 1.703125 -0.144531 L 1.703125 -0.574219 C 1.703125 -0.609375 1.710938 -0.632812 1.722656 -0.648438 C 1.738281 -0.664062 1.753906 -0.667969 1.777344 -0.667969 C 1.796875 -0.667969 1.816406 -0.664062 1.828125 -0.648438 C 1.84375 -0.632812 1.847656 -0.609375 1.847656 -0.574219 L 1.847656 0 L 0.25 0 C 0.214844 0 0.1875 -0.0078125 0.175781 -0.0195312 C 0.160156 -0.0351562 0.152344 -0.0507812 0.152344 -0.0742188 C 0.152344 -0.09375 0.160156 -0.113281 0.175781 -0.125 C 0.1875 -0.136719 0.214844 -0.144531 0.25 -0.144531 L 0.445312 -0.144531 L 0.445312 -1.875 L 0.25 -1.875 C 0.214844 -1.875 0.1875 -1.882812 0.175781 -1.894531 C 0.160156 -1.90625 0.152344 -1.925781 0.152344 -1.945312 C 0.152344 -1.96875 0.160156 -1.988281 0.175781 -2 C 0.1875 -2.011719 0.214844 -2.019531 0.25 -2.019531 L 1.773438 -2.019531 L 1.773438 -1.519531 C 1.773438 -1.484375 1.765625 -1.460938 1.753906 -1.445312 C 1.738281 -1.429688 1.722656 -1.425781 1.699219 -1.425781 C 1.679688 -1.425781 1.660156 -1.429688 1.648438 -1.445312 C 1.632812 -1.460938 1.628906 -1.484375 1.628906 -1.519531 L 1.628906 -1.875 L 0.589844 -1.875 L 0.589844 -1.121094 L 1.109375 -1.121094 L 1.109375 -1.285156 C 1.109375 -1.320312 1.113281 -1.34375 1.128906 -1.359375 C 1.144531 -1.375 1.160156 -1.382812 1.183594 -1.382812 C 1.203125 -1.382812 1.21875 -1.375 1.234375 -1.359375 C 1.246094 -1.34375 1.253906 -1.320312 1.253906 -1.285156 L 1.253906 -0.8125 C 1.253906 -0.777344 1.246094 -0.753906 1.234375 -0.738281 C 1.21875 -0.722656 1.203125 -0.714844 1.183594 -0.714844 C 1.160156 -0.714844 1.144531 -0.722656 1.128906 -0.738281 C 1.113281 -0.753906 1.109375 -0.777344 1.109375 -0.8125 L 1.109375 -0.976562 Z "/>
</g>
<g id="glyph-0-2">
<path d="M 1.699219 -1.820312 L 1.699219 -1.921875 C 1.699219 -1.957031 1.707031 -1.980469 1.71875 -1.996094 C 1.730469 -2.011719 1.75 -2.019531 1.769531 -2.019531 C 1.792969 -2.019531 1.808594 -2.011719 1.824219 -1.996094 C 1.835938 -1.980469 1.84375 -1.957031 1.84375 -1.921875 L 1.84375 -1.519531 C 1.84375 -1.484375 1.835938 -1.460938 1.824219 -1.445312 C 1.808594 -1.429688 1.792969 -1.421875 1.769531 -1.421875 C 1.75 -1.421875 1.734375 -1.429688 1.722656 -1.441406 C 1.707031 -1.457031 1.699219 -1.480469 1.699219 -1.511719 C 1.691406 -1.605469 1.640625 -1.691406 1.542969 -1.765625 C 1.40625 -1.871094 1.257812 -1.921875 1.085938 -1.921875 C 0.972656 -1.921875 0.867188 -1.894531 0.769531 -1.847656 C 0.695312 -1.8125 0.636719 -1.765625 0.59375 -1.714844 C 0.519531 -1.625 0.457031 -1.527344 0.414062 -1.417969 C 0.378906 -1.335938 0.363281 -1.246094 0.363281 -1.144531 L 0.363281 -0.890625 C 0.363281 -0.675781 0.441406 -0.488281 0.597656 -0.328125 C 0.753906 -0.167969 0.9375 -0.0898438 1.144531 -0.0898438 C 1.269531 -0.0898438 1.378906 -0.113281 1.476562 -0.167969 C 1.578125 -0.222656 1.671875 -0.304688 1.765625 -0.414062 C 1.785156 -0.4375 1.804688 -0.449219 1.828125 -0.449219 C 1.851562 -0.449219 1.867188 -0.445312 1.878906 -0.429688 C 1.890625 -0.417969 1.898438 -0.402344 1.898438 -0.382812 C 1.898438 -0.355469 1.875 -0.316406 1.824219 -0.261719 C 1.730469 -0.15625 1.625 -0.078125 1.507812 -0.0234375 C 1.386719 0.03125 1.269531 0.0585938 1.148438 0.0585938 C 1.042969 0.0585938 0.9375 0.0351562 0.828125 -0.00390625 C 0.746094 -0.0351562 0.675781 -0.0703125 0.625 -0.113281 C 0.570312 -0.152344 0.503906 -0.222656 0.421875 -0.320312 C 0.34375 -0.421875 0.292969 -0.511719 0.261719 -0.59375 C 0.234375 -0.679688 0.21875 -0.769531 0.21875 -0.871094 L 0.21875 -1.164062 C 0.21875 -1.308594 0.257812 -1.453125 0.335938 -1.601562 C 0.410156 -1.75 0.515625 -1.867188 0.648438 -1.945312 C 0.78125 -2.027344 0.925781 -2.066406 1.082031 -2.066406 C 1.320312 -2.066406 1.527344 -1.984375 1.699219 -1.820312 Z "/>
</g>
<g id="glyph-0-3">
<path d="M 0.710938 -0.976562 L 0.710938 -0.144531 L 1.207031 -0.144531 C 1.242188 -0.144531 1.265625 -0.136719 1.28125 -0.125 C 1.296875 -0.113281 1.304688 -0.09375 1.304688 -0.0742188 C 1.304688 -0.0507812 1.296875 -0.0351562 1.28125 -0.0195312 C 1.265625 -0.0078125 1.242188 0 1.207031 0 L 0.371094 0 C 0.335938 0 0.3125 -0.0078125 0.296875 -0.0195312 C 0.28125 -0.0351562 0.273438 -0.0507812 0.273438 -0.0742188 C 0.273438 -0.09375 0.28125 -0.113281 0.296875 -0.125 C 0.3125 -0.136719 0.335938 -0.144531 0.371094 -0.144531 L 0.566406 -0.144531 L 0.566406 -1.875 L 0.371094 -1.875 C 0.335938 -1.875 0.3125 -1.882812 0.296875 -1.894531 C 0.28125 -1.90625 0.273438 -1.925781 0.273438 -1.945312 C 0.273438 -1.96875 0.28125 -1.988281 0.300781 -2.003906 C 0.3125 -2.015625 0.335938 -2.019531 0.371094 -2.019531 L 1.96875 -2.019531 L 1.96875 -1.519531 C 1.96875 -1.484375 1.960938 -1.460938 1.945312 -1.445312 C 1.933594 -1.429688 1.917969 -1.425781 1.894531 -1.425781 C 1.875 -1.425781 1.855469 -1.429688 1.84375 -1.445312 C 1.828125 -1.460938 1.820312 -1.484375 1.820312 -1.519531 L 1.820312 -1.875 L 0.710938 -1.875 L 0.710938 -1.121094 L 1.230469 -1.121094 L 1.230469 -1.285156 C 1.230469 -1.320312 1.238281 -1.34375 1.25 -1.359375 C 1.265625 -1.375 1.28125 -1.382812 1.304688 -1.382812 C 1.324219 -1.382812 1.34375 -1.375 1.355469 -1.359375 C 1.371094 -1.34375 1.378906 -1.320312 1.378906 -1.285156 L 1.378906 -0.8125 C 1.378906 -0.777344 1.371094 -0.753906 1.355469 -0.738281 C 1.34375 -0.722656 1.324219 -0.714844 1.304688 -0.714844 C 1.28125 -0.714844 1.265625 -0.722656 1.25 -0.738281 C 1.238281 -0.753906 1.230469 -0.777344 1.230469 -0.8125 L 1.230469 -0.976562 Z "/>
</g>
<g id="glyph-1-0">
<path d="M 5.585938 -2.148438 C 5.527344 -2.140625 5.445312 -2.128906 5.339844 -2.113281 C 5.238281 -2.097656 5.15625 -2.074219 5.09375 -2.042969 C 5.015625 -2.003906 4.960938 -1.953125 4.929688 -1.882812 C 4.898438 -1.8125 4.882812 -1.730469 4.882812 -1.636719 L 4.882812 -1.21875 C 4.882812 -0.914062 4.886719 -0.710938 4.890625 -0.605469 C 4.894531 -0.496094 4.898438 -0.410156 4.902344 -0.339844 C 4.566406 -0.191406 4.230469 -0.0742188 3.894531 0.0078125 C 3.5625 0.0898438 3.234375 0.128906 2.914062 0.128906 C 2.570312 0.128906 2.238281 0.0664062 1.917969 -0.0664062 C 1.597656 -0.195312 1.320312 -0.378906 1.082031 -0.617188 C 0.839844 -0.855469 0.652344 -1.148438 0.507812 -1.492188 C 0.367188 -1.839844 0.296875 -2.222656 0.296875 -2.648438 C 0.296875 -3.058594 0.363281 -3.441406 0.5 -3.789062 C 0.636719 -4.140625 0.828125 -4.445312 1.074219 -4.703125 C 1.316406 -4.957031 1.601562 -5.15625 1.933594 -5.296875 C 2.269531 -5.4375 2.625 -5.507812 3.003906 -5.507812 C 3.308594 -5.507812 3.570312 -5.46875 3.796875 -5.394531 C 4.023438 -5.324219 4.222656 -5.234375 4.394531 -5.128906 L 4.550781 -5.390625 L 4.851562 -5.390625 L 4.886719 -3.503906 L 4.574219 -3.503906 C 4.523438 -3.710938 4.457031 -3.917969 4.378906 -4.117188 C 4.300781 -4.320312 4.199219 -4.5 4.074219 -4.660156 C 3.949219 -4.820312 3.796875 -4.945312 3.621094 -5.042969 C 3.441406 -5.136719 3.226562 -5.183594 2.980469 -5.183594 C 2.707031 -5.183594 2.464844 -5.128906 2.253906 -5.019531 C 2.039062 -4.90625 1.855469 -4.742188 1.699219 -4.527344 C 1.542969 -4.316406 1.425781 -4.054688 1.339844 -3.738281 C 1.257812 -3.425781 1.214844 -3.074219 1.214844 -2.6875 C 1.214844 -2.34375 1.257812 -2.023438 1.339844 -1.71875 C 1.421875 -1.417969 1.539062 -1.15625 1.699219 -0.933594 C 1.855469 -0.710938 2.050781 -0.53125 2.289062 -0.402344 C 2.523438 -0.273438 2.789062 -0.207031 3.089844 -0.207031 C 3.3125 -0.207031 3.515625 -0.242188 3.699219 -0.3125 C 3.882812 -0.378906 4.015625 -0.453125 4.089844 -0.527344 C 4.109375 -0.660156 4.121094 -0.792969 4.121094 -0.925781 C 4.125 -1.0625 4.125 -1.175781 4.125 -1.269531 L 4.125 -1.566406 C 4.125 -1.671875 4.109375 -1.765625 4.082031 -1.847656 C 4.050781 -1.929688 3.992188 -1.988281 3.898438 -2.027344 C 3.816406 -2.066406 3.703125 -2.09375 3.558594 -2.113281 C 3.417969 -2.132812 3.304688 -2.144531 3.222656 -2.148438 L 3.222656 -2.425781 L 5.585938 -2.425781 Z "/>
</g>
<g id="glyph-1-1">
<path d="M 2.089844 0 L 0.28125 0 L 0.28125 -0.25 C 0.339844 -0.253906 0.398438 -0.261719 0.460938 -0.265625 C 0.523438 -0.269531 0.578125 -0.28125 0.621094 -0.296875 C 0.695312 -0.320312 0.746094 -0.359375 0.78125 -0.414062 C 0.816406 -0.472656 0.832031 -0.546875 0.832031 -0.636719 L 0.832031 -2.949219 C 0.832031 -3.027344 0.8125 -3.101562 0.777344 -3.167969 C 0.738281 -3.238281 0.6875 -3.292969 0.621094 -3.339844 C 0.574219 -3.367188 0.503906 -3.394531 0.414062 -3.414062 C 0.324219 -3.4375 0.238281 -3.449219 0.164062 -3.457031 L 0.164062 -3.707031 L 1.484375 -3.789062 L 1.539062 -3.738281 L 1.539062 -0.683594 C 1.539062 -0.59375 1.554688 -0.523438 1.589844 -0.464844 C 1.621094 -0.40625 1.675781 -0.363281 1.75 -0.335938 C 1.804688 -0.3125 1.859375 -0.292969 1.910156 -0.277344 C 1.964844 -0.265625 2.023438 -0.253906 2.089844 -0.25 L 2.089844 0 M 1.613281 -5.265625 C 1.613281 -5.121094 1.566406 -4.996094 1.472656 -4.890625 C 1.375 -4.78125 1.257812 -4.726562 1.121094 -4.726562 C 0.992188 -4.726562 0.878906 -4.777344 0.785156 -4.882812 C 0.6875 -4.984375 0.640625 -5.101562 0.640625 -5.234375 C 0.640625 -5.371094 0.6875 -5.492188 0.785156 -5.597656 C 0.878906 -5.703125 0.992188 -5.753906 1.121094 -5.753906 C 1.265625 -5.753906 1.382812 -5.703125 1.476562 -5.605469 C 1.566406 -5.507812 1.613281 -5.394531 1.613281 -5.265625 Z "/>
</g>
<g id="glyph-1-2">
<path d="M 1.734375 -3.242188 C 1.734375 -3.101562 1.683594 -2.980469 1.582031 -2.878906 C 1.480469 -2.777344 1.355469 -2.726562 1.214844 -2.726562 C 1.074219 -2.726562 0.953125 -2.777344 0.847656 -2.878906 C 0.746094 -2.980469 0.695312 -3.101562 0.695312 -3.242188 C 0.695312 -3.382812 0.746094 -3.503906 0.847656 -3.605469 C 0.949219 -3.707031 1.070312 -3.757812 1.214844 -3.757812 C 1.359375 -3.757812 1.480469 -3.707031 1.582031 -3.605469 C 1.683594 -3.503906 1.734375 -3.382812 1.734375 -3.242188 M 1.734375 -0.4375 C 1.734375 -0.296875 1.683594 -0.175781 1.582031 -0.0742188 C 1.480469 0.0273438 1.355469 0.0742188 1.214844 0.0742188 C 1.074219 0.0742188 0.953125 0.0273438 0.847656 -0.0742188 C 0.746094 -0.175781 0.695312 -0.296875 0.695312 -0.4375 C 0.695312 -0.578125 0.746094 -0.699219 0.847656 -0.804688 C 0.953125 -0.90625 1.074219 -0.957031 1.214844 -0.957031 C 1.355469 -0.957031 1.480469 -0.90625 1.582031 -0.804688 C 1.683594 -0.699219 1.734375 -0.578125 1.734375 -0.4375 Z "/>
</g>
<g id="glyph-1-3">
</g>
<g id="glyph-1-4">
<path d="M 4.011719 -1.957031 C 4.011719 -1.515625 3.941406 -1.101562 3.800781 -0.714844 C 3.660156 -0.324219 3.460938 0.015625 3.203125 0.308594 C 2.945312 0.597656 2.632812 0.835938 2.265625 1.027344 C 1.898438 1.21875 1.484375 1.34375 1.027344 1.40625 L 0.960938 1.0625 L 1.300781 1.003906 C 1.847656 0.832031 2.273438 0.566406 2.578125 0.210938 C 2.886719 -0.148438 3.082031 -0.601562 3.171875 -1.148438 C 2.964844 -0.972656 2.757812 -0.84375 2.550781 -0.761719 C 2.34375 -0.679688 2.113281 -0.636719 1.851562 -0.636719 C 1.441406 -0.636719 1.082031 -0.796875 0.777344 -1.121094 C 0.472656 -1.441406 0.320312 -1.84375 0.320312 -2.332031 C 0.320312 -2.855469 0.496094 -3.296875 0.847656 -3.65625 C 1.203125 -4.015625 1.636719 -4.195312 2.15625 -4.195312 C 2.722656 -4.195312 3.171875 -3.996094 3.507812 -3.59375 C 3.84375 -3.191406 4.011719 -2.644531 4.011719 -1.957031 M 3.207031 -2 C 3.207031 -2.59375 3.109375 -3.058594 2.914062 -3.394531 C 2.722656 -3.730469 2.464844 -3.894531 2.148438 -3.894531 C 1.847656 -3.894531 1.605469 -3.765625 1.421875 -3.507812 C 1.234375 -3.246094 1.144531 -2.890625 1.144531 -2.433594 C 1.144531 -2.023438 1.238281 -1.695312 1.425781 -1.445312 C 1.613281 -1.199219 1.867188 -1.074219 2.183594 -1.074219 C 2.382812 -1.074219 2.5625 -1.109375 2.726562 -1.183594 C 2.890625 -1.253906 3.042969 -1.371094 3.1875 -1.53125 C 3.1875 -1.539062 3.1875 -1.5625 3.191406 -1.589844 C 3.195312 -1.621094 3.199219 -1.664062 3.199219 -1.71875 C 3.199219 -1.753906 3.199219 -1.796875 3.203125 -1.847656 C 3.203125 -1.898438 3.207031 -1.949219 3.207031 -2 Z "/>
</g>
<g id="glyph-1-5">
<path d="M 3.898438 -3.546875 C 4.0625 -3.351562 4.183594 -3.125 4.261719 -2.863281 C 4.34375 -2.597656 4.382812 -2.324219 4.382812 -2.039062 C 4.382812 -1.695312 4.332031 -1.386719 4.234375 -1.113281 C 4.136719 -0.84375 4 -0.617188 3.828125 -0.4375 C 3.652344 -0.25 3.441406 -0.113281 3.199219 -0.0195312 C 2.953125 0.0742188 2.683594 0.121094 2.386719 0.121094 C 2.058594 0.121094 1.765625 0.0664062 1.511719 -0.0429688 C 1.253906 -0.152344 1.046875 -0.300781 0.886719 -0.488281 C 0.722656 -0.6875 0.597656 -0.917969 0.515625 -1.183594 C 0.433594 -1.449219 0.390625 -1.734375 0.390625 -2.039062 C 0.390625 -2.339844 0.429688 -2.617188 0.511719 -2.871094 C 0.589844 -3.125 0.714844 -3.351562 0.886719 -3.558594 C 1.046875 -3.753906 1.253906 -3.910156 1.511719 -4.023438 C 1.765625 -4.140625 2.058594 -4.195312 2.386719 -4.195312 C 2.734375 -4.195312 3.03125 -4.136719 3.28125 -4.023438 C 3.527344 -3.90625 3.734375 -3.746094 3.898438 -3.546875 M 3.542969 -2.039062 C 3.542969 -2.640625 3.441406 -3.109375 3.234375 -3.441406 C 3.027344 -3.773438 2.746094 -3.9375 2.390625 -3.9375 C 2.03125 -3.9375 1.75 -3.773438 1.542969 -3.441406 C 1.335938 -3.109375 1.230469 -2.640625 1.230469 -2.039062 C 1.230469 -1.46875 1.328125 -1.007812 1.527344 -0.660156 C 1.726562 -0.3125 2.011719 -0.136719 2.386719 -0.136719 C 2.757812 -0.136719 3.042969 -0.3125 3.242188 -0.660156 C 3.441406 -1.007812 3.542969 -1.46875 3.542969 -2.039062 Z "/>
</g>
<g id="glyph-1-6">
<path d="M 2.992188 -4.113281 C 2.992188 -3.667969 2.871094 -3.320312 2.632812 -3.074219 C 2.390625 -2.832031 2.082031 -2.707031 1.703125 -2.707031 C 1.320312 -2.707031 1.011719 -2.832031 0.773438 -3.074219 C 0.535156 -3.320312 0.414062 -3.667969 0.414062 -4.113281 C 0.414062 -4.53125 0.53125 -4.871094 0.765625 -5.128906 C 1 -5.390625 1.3125 -5.519531 1.707031 -5.519531 C 2.09375 -5.519531 2.402344 -5.390625 2.640625 -5.128906 C 2.875 -4.871094 2.992188 -4.53125 2.992188 -4.113281 M 2.351562 -4.113281 C 2.351562 -4.441406 2.296875 -4.714844 2.1875 -4.925781 C 2.078125 -5.136719 1.917969 -5.242188 1.707031 -5.242188 C 1.488281 -5.242188 1.324219 -5.136719 1.21875 -4.925781 C 1.109375 -4.714844 1.054688 -4.441406 1.054688 -4.113281 C 1.054688 -3.773438 1.109375 -3.503906 1.21875 -3.296875 C 1.328125 -3.089844 1.488281 -2.984375 1.703125 -2.984375 C 1.914062 -2.984375 2.074219 -3.089844 2.183594 -3.296875 C 2.296875 -3.503906 2.351562 -3.773438 2.351562 -4.113281 M 5.941406 -1.285156 C 5.941406 -0.839844 5.824219 -0.492188 5.582031 -0.246094 C 5.34375 0 5.03125 0.121094 4.652344 0.121094 C 4.273438 0.121094 3.960938 0 3.722656 -0.246094 C 3.484375 -0.492188 3.363281 -0.839844 3.363281 -1.285156 C 3.363281 -1.703125 3.480469 -2.042969 3.714844 -2.300781 C 3.949219 -2.558594 4.261719 -2.6875 4.65625 -2.6875 C 5.042969 -2.6875 5.355469 -2.558594 5.589844 -2.300781 C 5.824219 -2.042969 5.941406 -1.703125 5.941406 -1.285156 M 5.300781 -1.285156 C 5.300781 -1.613281 5.246094 -1.882812 5.136719 -2.09375 C 5.027344 -2.304688 4.867188 -2.410156 4.65625 -2.410156 C 4.4375 -2.410156 4.273438 -2.304688 4.167969 -2.09375 C 4.058594 -1.882812 4.007812 -1.613281 4.007812 -1.285156 C 4.007812 -0.945312 4.0625 -0.671875 4.167969 -0.464844 C 4.277344 -0.257812 4.4375 -0.15625 4.652344 -0.15625 C 4.863281 -0.15625 5.027344 -0.257812 5.136719 -0.464844 C 5.246094 -0.671875 5.300781 -0.945312 5.300781 -1.285156 M 5.691406 -5.40625 L 1.214844 0 L 0.691406 0 L 5.160156 -5.40625 Z "/>
</g>
<g id="glyph-1-7">
<path d="M 1.703125 1.609375 L 1.21875 1.609375 L 1.21875 -5.785156 L 1.703125 -5.785156 Z "/>
</g>
<g id="glyph-1-8">
<path d="M 5.601562 0 L 4.089844 0 C 3.796875 -0.449219 3.476562 -0.898438 3.121094 -1.34375 C 2.765625 -1.785156 2.390625 -2.21875 2 -2.636719 L 1.902344 -2.636719 L 1.902344 -0.757812 C 1.902344 -0.675781 1.917969 -0.601562 1.949219 -0.535156 C 1.980469 -0.46875 2.039062 -0.417969 2.121094 -0.375 C 2.164062 -0.359375 2.238281 -0.335938 2.347656 -0.3125 C 2.457031 -0.285156 2.550781 -0.273438 2.625 -0.269531 L 2.625 0 L 0.386719 0 L 0.386719 -0.269531 C 0.445312 -0.273438 0.53125 -0.28125 0.640625 -0.292969 C 0.753906 -0.300781 0.832031 -0.316406 0.878906 -0.339844 C 0.953125 -0.371094 1.007812 -0.417969 1.042969 -0.484375 C 1.078125 -0.546875 1.09375 -0.625 1.09375 -0.71875 L 1.09375 -4.605469 C 1.09375 -4.691406 1.078125 -4.765625 1.050781 -4.832031 C 1.019531 -4.894531 0.964844 -4.945312 0.878906 -4.984375 C 0.808594 -5.019531 0.726562 -5.046875 0.632812 -5.074219 C 0.539062 -5.097656 0.457031 -5.113281 0.386719 -5.117188 L 0.386719 -5.390625 L 2.625 -5.390625 L 2.625 -5.117188 C 2.554688 -5.117188 2.464844 -5.105469 2.359375 -5.085938 C 2.25 -5.066406 2.171875 -5.046875 2.121094 -5.027344 C 2.035156 -4.996094 1.976562 -4.945312 1.949219 -4.875 C 1.917969 -4.804688 1.902344 -4.726562 1.902344 -4.644531 L 1.902344 -2.785156 L 1.976562 -2.785156 C 2.207031 -2.976562 2.429688 -3.175781 2.652344 -3.386719 C 2.871094 -3.59375 3.070312 -3.800781 3.25 -4.011719 C 3.449219 -4.242188 3.597656 -4.425781 3.6875 -4.5625 C 3.78125 -4.699219 3.828125 -4.824219 3.828125 -4.929688 C 3.828125 -4.96875 3.804688 -5 3.757812 -5.023438 C 3.710938 -5.046875 3.65625 -5.066406 3.597656 -5.082031 C 3.523438 -5.097656 3.460938 -5.105469 3.40625 -5.109375 C 3.351562 -5.113281 3.304688 -5.117188 3.269531 -5.117188 L 3.269531 -5.390625 L 5.289062 -5.390625 L 5.289062 -5.117188 C 5.28125 -5.117188 5.265625 -5.117188 5.242188 -5.117188 C 5.214844 -5.113281 5.1875 -5.109375 5.152344 -5.109375 C 5.117188 -5.105469 5.082031 -5.101562 5.046875 -5.09375 C 5.011719 -5.085938 4.964844 -5.074219 4.910156 -5.066406 C 4.820312 -5.046875 4.730469 -5.011719 4.636719 -4.96875 C 4.539062 -4.925781 4.460938 -4.871094 4.402344 -4.804688 C 4.140625 -4.507812 3.871094 -4.203125 3.585938 -3.882812 C 3.304688 -3.566406 3.023438 -3.277344 2.746094 -3.019531 C 3.128906 -2.582031 3.449219 -2.207031 3.699219 -1.894531 C 3.953125 -1.582031 4.222656 -1.246094 4.503906 -0.886719 C 4.613281 -0.75 4.722656 -0.640625 4.832031 -0.558594 C 4.9375 -0.476562 5.03125 -0.417969 5.109375 -0.375 C 5.175781 -0.34375 5.257812 -0.316406 5.355469 -0.300781 C 5.453125 -0.28125 5.535156 -0.273438 5.601562 -0.269531 Z "/>
</g>
<g id="glyph-1-9">
<path d="M 1.574219 -0.4375 C 1.574219 -0.296875 1.523438 -0.175781 1.421875 -0.0742188 C 1.320312 0.0273438 1.199219 0.0742188 1.054688 0.0742188 C 0.914062 0.0742188 0.792969 0.0273438 0.6875 -0.0742188 C 0.585938 -0.175781 0.535156 -0.296875 0.535156 -0.4375 C 0.535156 -0.578125 0.585938 -0.699219 0.6875 -0.804688 C 0.792969 -0.90625 0.914062 -0.957031 1.054688 -0.957031 C 1.199219 -0.957031 1.320312 -0.90625 1.421875 -0.804688 C 1.523438 -0.699219 1.574219 -0.578125 1.574219 -0.4375 Z "/>
</g>
<g id="glyph-1-10">
<path d="M 1.847656 1.386719 C 1.613281 1.386719 1.394531 1.355469 1.195312 1.296875 C 1 1.238281 0.828125 1.15625 0.6875 1.054688 C 0.546875 0.953125 0.4375 0.839844 0.359375 0.707031 C 0.28125 0.574219 0.242188 0.4375 0.242188 0.300781 C 0.242188 0.175781 0.273438 0.0625 0.335938 -0.0351562 C 0.394531 -0.136719 0.492188 -0.1875 0.625 -0.1875 C 0.777344 -0.1875 0.894531 -0.148438 0.972656 -0.0742188 C 1.054688 0 1.09375 0.0859375 1.09375 0.183594 C 1.09375 0.261719 1.082031 0.367188 1.054688 0.488281 C 1.027344 0.613281 1.007812 0.703125 0.992188 0.753906 C 1.007812 0.777344 1.042969 0.808594 1.089844 0.847656 C 1.136719 0.886719 1.191406 0.917969 1.261719 0.949219 C 1.34375 0.988281 1.425781 1.019531 1.515625 1.039062 C 1.605469 1.0625 1.730469 1.074219 1.894531 1.074219 C 2.046875 1.074219 2.191406 1.050781 2.332031 1 C 2.472656 0.949219 2.597656 0.867188 2.703125 0.753906 C 2.816406 0.640625 2.902344 0.503906 2.964844 0.347656 C 3.027344 0.191406 3.058594 -0.0117188 3.058594 -0.265625 C 3.058594 -0.402344 3.042969 -0.539062 3.011719 -0.671875 C 2.984375 -0.804688 2.929688 -0.921875 2.851562 -1.023438 C 2.773438 -1.121094 2.664062 -1.195312 2.53125 -1.25 C 2.394531 -1.304688 2.222656 -1.332031 2.015625 -1.332031 L 1.515625 -1.332031 L 1.515625 -1.769531 L 1.847656 -1.769531 C 2.195312 -1.769531 2.449219 -1.867188 2.605469 -2.058594 C 2.757812 -2.25 2.835938 -2.539062 2.835938 -2.929688 C 2.835938 -3.246094 2.761719 -3.484375 2.613281 -3.644531 C 2.460938 -3.804688 2.25 -3.886719 1.976562 -3.886719 C 1.84375 -3.886719 1.734375 -3.867188 1.652344 -3.835938 C 1.566406 -3.804688 1.496094 -3.773438 1.445312 -3.746094 C 1.378906 -3.707031 1.328125 -3.667969 1.289062 -3.625 C 1.246094 -3.582031 1.214844 -3.550781 1.195312 -3.53125 C 1.214844 -3.449219 1.234375 -3.351562 1.261719 -3.234375 C 1.285156 -3.117188 1.296875 -3.003906 1.296875 -2.898438 C 1.296875 -2.804688 1.257812 -2.71875 1.179688 -2.644531 C 1.097656 -2.570312 0.980469 -2.53125 0.828125 -2.53125 C 0.695312 -2.53125 0.59375 -2.582031 0.535156 -2.675781 C 0.472656 -2.773438 0.441406 -2.886719 0.441406 -3.011719 C 0.441406 -3.144531 0.476562 -3.277344 0.550781 -3.414062 C 0.625 -3.550781 0.734375 -3.679688 0.878906 -3.796875 C 1.023438 -3.917969 1.199219 -4.011719 1.40625 -4.085938 C 1.613281 -4.160156 1.851562 -4.195312 2.121094 -4.195312 C 2.433594 -4.195312 2.691406 -4.148438 2.894531 -4.058594 C 3.097656 -3.964844 3.257812 -3.851562 3.375 -3.722656 C 3.488281 -3.59375 3.570312 -3.457031 3.613281 -3.316406 C 3.65625 -3.171875 3.675781 -3.050781 3.675781 -2.949219 C 3.675781 -2.824219 3.660156 -2.695312 3.621094 -2.570312 C 3.585938 -2.441406 3.527344 -2.324219 3.449219 -2.214844 C 3.359375 -2.09375 3.242188 -1.988281 3.097656 -1.890625 C 2.953125 -1.792969 2.769531 -1.710938 2.546875 -1.652344 L 2.546875 -1.589844 C 2.691406 -1.578125 2.839844 -1.546875 3 -1.496094 C 3.164062 -1.445312 3.308594 -1.371094 3.4375 -1.273438 C 3.570312 -1.167969 3.679688 -1.035156 3.765625 -0.871094 C 3.851562 -0.707031 3.894531 -0.5 3.894531 -0.25 C 3.894531 0.234375 3.703125 0.628906 3.3125 0.933594 C 2.921875 1.234375 2.433594 1.386719 1.847656 1.386719 Z "/>
</g>
</g>
</defs>
<path fill="none" stroke-width="0.205508" stroke-linecap="butt" stroke-linejoin="miter" stroke="rgb(18.039216%, 80%, 44.313725%)" stroke-opacity="1" stroke-miterlimit="2" d="M 38.71875 20.308594 L 47.675781 20.308594 L 47.675781 29.671875 L 38.71875 29.671875 Z "/>
<g fill="rgb(18.039216%, 80%, 44.313725%)" fill-opacity="1">
<use xlink:href="#glyph-0-0" x="39.027344" y="24.886719"/>
</g>
<g fill="rgb(18.039216%, 80%, 44.313725%)" fill-opacity="1">
<use xlink:href="#glyph-0-1" x="43.300781" y="24.886719"/>
</g>
<g fill="rgb(18.039216%, 80%, 44.313725%)" fill-opacity="1">
<use xlink:href="#glyph-0-2" x="39.027344" y="29.363281"/>
</g>
<g fill="rgb(18.039216%, 80%, 44.313725%)" fill-opacity="1">
<use xlink:href="#glyph-0-3" x="43.300781" y="29.363281"/>
</g>
<g fill="rgb(18.039216%, 80%, 44.313725%)" fill-opacity="1">
<use xlink:href="#glyph-1-0" x="30" y="27.926758"/>
<use xlink:href="#glyph-1-1" x="36" y="27.926758"/>
<use xlink:href="#glyph-1-1" x="48" y="27.926758"/>
<use xlink:href="#glyph-1-2" x="50" y="27.926758"/>
<use xlink:href="#glyph-1-3" x="52" y="27.926758"/>
<use xlink:href="#glyph-1-4" x="54" y="27.926758"/>
<use xlink:href="#glyph-1-5" x="58" y="27.926758"/>
<use xlink:href="#glyph-1-6" x="63" y="27.926758"/>
</g>
<g fill="rgb(100%, 100%, 100%)" fill-opacity="1">
<use xlink:href="#glyph-1-3" x="69" y="27.926758"/>
<use xlink:href="#glyph-1-7" x="71" y="27.926758"/>
<use xlink:href="#glyph-1-3" x="74" y="27.926758"/>
</g>
<path fill="none" stroke-width="0.205508" stroke-linecap="butt" stroke-linejoin="miter" stroke="rgb(90.588235%, 29.803922%, 23.529412%)" stroke-opacity="1" stroke-miterlimit="2" d="M 91.71875 20.308594 L 100.675781 20.308594 L 100.675781 29.671875 L 91.71875 29.671875 Z "/>
<g fill="rgb(90.588235%, 29.803922%, 23.529412%)" fill-opacity="1">
<use xlink:href="#glyph-0-0" x="92.027344" y="24.886719"/>
</g>
<g fill="rgb(90.588235%, 29.803922%, 23.529412%)" fill-opacity="1">
<use xlink:href="#glyph-0-1" x="96.300781" y="24.886719"/>
</g>
<g fill="rgb(90.588235%, 29.803922%, 23.529412%)" fill-opacity="1">
<use xlink:href="#glyph-0-2" x="92.027344" y="29.363281"/>
</g>
<g fill="rgb(90.588235%, 29.803922%, 23.529412%)" fill-opacity="1">
<use xlink:href="#glyph-0-3" x="96.300781" y="29.363281"/>
</g>
<g fill="rgb(90.588235%, 29.803922%, 23.529412%)" fill-opacity="1">
<use xlink:href="#glyph-1-8" x="76" y="27.926758"/>
<use xlink:href="#glyph-1-9" x="81" y="27.926758"/>
<use xlink:href="#glyph-1-0" x="83" y="27.926758"/>
<use xlink:href="#glyph-1-1" x="89" y="27.926758"/>
<use xlink:href="#glyph-1-1" x="101" y="27.926758"/>
<use xlink:href="#glyph-1-2" x="103" y="27.926758"/>
<use xlink:href="#glyph-1-3" x="105" y="27.926758"/>
<use xlink:href="#glyph-1-10" x="107" y="27.926758"/>
<use xlink:href="#glyph-1-5" x="111" y="27.926758"/>
<use xlink:href="#glyph-1-6" x="116" y="27.926758"/>
</g>
</svg>
